<svg width="744" height="40" viewBox="0 0 744 40" fill="none" xmlns="http://www.w3.org/2000/svg">
<g filter="url(#filter0_f_300_116)">
<path d="M731.653 34.1758L738.509 5.5625H737.434L731.653 30.7188C731.575 31.0312 731.503 31.3438 731.438 31.6562C731.36 31.9557 731.269 32.3203 731.165 32.75H731.087C731.009 32.3203 730.937 31.9557 730.872 31.6562C730.794 31.3568 730.716 31.0443 730.638 30.7188L724.212 5.5625H722.981L716.555 30.7188C716.464 31.0443 716.386 31.3568 716.321 31.6562C716.256 31.9557 716.171 32.3203 716.067 32.75H715.97C715.891 32.3203 715.82 31.9557 715.755 31.6562C715.677 31.3568 715.598 31.0378 715.52 30.6992L709.778 5.5625H708.763L715.618 34.1758H716.614L723.079 9.05859C723.17 8.73307 723.274 8.33594 723.391 7.86719C723.496 7.39844 723.574 6.97526 723.626 6.59766H723.723C723.789 6.97526 723.873 7.39844 723.977 7.86719C724.082 8.32292 724.179 8.72005 724.27 9.05859L730.677 34.1758H731.653ZM702.651 34V5.5625H687.573V6.48047H701.655V18.8438H689.545V19.7617H701.655V33.082H687.377V34H702.651ZM681.637 34V5.5625H673.844C671.344 5.5625 669.391 6.09635 667.984 7.16406C666.578 8.23177 665.875 10.0221 665.875 12.5352C665.875 14.3971 666.324 15.8945 667.223 17.0273C668.108 18.1471 669.299 18.8242 670.797 19.0586V19.1172C669.104 19.3255 667.73 20.0417 666.676 21.2656C665.608 22.4766 665.074 24.1628 665.074 26.3242C665.074 28.7591 665.771 30.6471 667.164 31.9883C668.544 33.3294 670.556 34 673.199 34H681.637ZM680.641 33.1016H673.141C670.732 33.1016 668.954 32.5091 667.809 31.3242C666.65 30.1263 666.07 28.4661 666.07 26.3438C666.07 24.2734 666.65 22.6328 667.809 21.4219C668.954 20.2109 670.732 19.6055 673.141 19.6055H680.641V33.1016ZM680.641 18.707H673.57C671.148 18.707 669.423 18.1536 668.395 17.0469C667.366 15.9271 666.852 14.4232 666.852 12.5352C666.852 10.3997 667.444 8.85677 668.629 7.90625C669.801 6.94271 671.539 6.46094 673.844 6.46094H680.641V18.707ZM660.564 26.793V25.8555H659.568V26.6758C659.568 28.8503 658.865 30.543 657.459 31.7539C656.052 32.9518 654.112 33.5508 651.638 33.5508C649.203 33.5508 647.309 32.9518 645.955 31.7539C644.588 30.543 643.904 29.0065 643.904 27.1445C643.904 25.3607 644.431 23.9284 645.486 22.8477C646.528 21.7669 648.617 20.7318 651.755 19.7422C654.854 18.7656 657.016 17.7174 658.24 16.5977C659.464 15.4648 660.076 13.8958 660.076 11.8906C660.076 9.82031 659.36 8.16667 657.927 6.92969C656.482 5.69271 654.444 5.07422 651.814 5.07422C649.054 5.07422 646.977 5.82292 645.584 7.32031C644.177 8.81771 643.474 10.5234 643.474 12.4375V13.2773H644.47V12.457C644.47 10.7383 645.056 9.23438 646.228 7.94531C647.4 6.65625 649.255 6.01172 651.795 6.01172C654.268 6.01172 656.104 6.53906 657.302 7.59375C658.487 8.63542 659.08 10.0742 659.08 11.9102C659.08 13.5768 658.52 14.918 657.4 15.9336C656.267 16.9492 654.158 17.9453 651.072 18.9219C647.999 19.8984 645.877 20.9857 644.705 22.1836C643.52 23.3685 642.927 25.0156 642.927 27.125C642.927 29.2995 643.715 31.0703 645.291 32.4375C646.853 33.8047 648.976 34.4883 651.658 34.4883C654.353 34.4883 656.515 33.7982 658.142 32.418C659.757 31.0378 660.564 29.1628 660.564 26.793ZM637.011 34V5.5625H636.034V34H637.011ZM630.86 6.48047V5.5625H611.212V6.48047H620.548V34H621.524V6.48047H630.86ZM606.174 34V5.5625H591.096V6.48047H605.178V18.8438H593.069V19.7617H605.178V33.082H590.901V34H606.174ZM575.591 34V5.5625H568.892C565.324 5.5625 562.492 6.81901 560.396 9.33203C558.3 11.832 557.252 15.1589 557.252 19.3125V20.25C557.252 24.651 558.365 28.043 560.591 30.4258C562.805 32.8086 565.572 34 568.892 34H575.591ZM574.595 33.082H568.892C565.819 33.082 563.28 31.9688 561.275 29.7422C559.27 27.5156 558.267 24.3451 558.267 20.2305V19.3711C558.267 15.4518 559.211 12.3268 561.099 9.99609C562.987 7.65234 565.585 6.48047 568.892 6.48047H574.595V33.082ZM550.515 34V5.5625H535.437V6.48047H549.519V18.8438H537.409V19.7617H549.519V33.082H535.241V34H550.515ZM532.606 5.5625H531.513L522.704 30.8164C522.574 31.1549 522.43 31.5456 522.274 31.9883C522.118 32.418 521.968 32.8542 521.825 33.2969H521.727C521.584 32.8542 521.441 32.418 521.298 31.9883C521.141 31.5586 520.992 31.1549 520.848 30.7773L512.02 5.5625H511.005L521.2 34.1758H522.43L532.606 5.5625ZM506.299 34V5.5625H491.221V6.48047H505.303V18.8438H493.194V19.7617H505.303V33.082H491.026V34H506.299ZM485.285 34V5.5625H484.289V33.082H470.793V34H485.285ZM466.732 20.1523V19.2539C466.732 14.3971 465.755 10.8229 463.802 8.53125C461.849 6.22656 459.291 5.07422 456.127 5.07422C452.95 5.07422 450.384 6.22656 448.431 8.53125C446.478 10.8229 445.502 14.3971 445.502 19.2539V20.1523C445.502 25.1393 446.478 28.7786 448.431 31.0703C450.384 33.349 452.95 34.4883 456.127 34.4883C459.278 34.4883 461.836 33.349 463.802 31.0703C465.755 28.7786 466.732 25.1393 466.732 20.1523ZM465.736 20.3281C465.736 24.9245 464.857 28.2773 463.099 30.3867C461.341 32.4961 459.017 33.5508 456.127 33.5508C453.21 33.5508 450.879 32.4961 449.134 30.3867C447.377 28.2773 446.498 24.918 446.498 20.3086V19.0586C446.498 14.6055 447.377 11.3177 449.134 9.19531C450.879 7.07292 453.21 6.01172 456.127 6.01172C459.017 6.01172 461.341 7.07292 463.099 9.19531C464.857 11.3177 465.736 14.6055 465.736 19.0586V20.3281ZM438.765 34V5.5625H431.07C428.257 5.5625 426.161 6.30469 424.78 7.78906C423.387 9.27344 422.691 11.2266 422.691 13.6484C422.691 16.0573 423.387 18.0104 424.78 19.5078C426.161 21.0052 428.257 21.7539 431.07 21.7539H437.769V34H438.765ZM437.769 20.8359H431.187C428.504 20.8359 426.584 20.1654 425.425 18.8242C424.266 17.4701 423.687 15.7448 423.687 13.6484C423.687 11.5521 424.266 9.83333 425.425 8.49219C426.571 7.15104 428.485 6.48047 431.167 6.48047H437.769V20.8359ZM417.009 34V5.5625H401.93V6.48047H416.013V18.8438H403.903V19.7617H416.013V33.082H401.735V34H417.009ZM395.995 34V5.5625H388.377C385.695 5.5625 383.664 6.27865 382.284 7.71094C380.903 9.13021 380.213 11.0247 380.213 13.3945C380.213 15.7904 380.89 17.7109 382.245 19.1562C383.586 20.5885 385.63 21.3047 388.377 21.3047H394.998V34H395.995ZM394.998 20.4062H388.377C385.838 20.4062 384.009 19.7617 382.889 18.4727C381.769 17.1836 381.209 15.4909 381.209 13.3945C381.209 11.3242 381.789 9.65104 382.948 8.375C384.093 7.09896 385.903 6.46094 388.377 6.46094H394.998V20.4062ZM380.194 34L387.069 20.7773H385.916L378.963 34H380.194ZM358.673 34.1758L365.529 5.5625H364.455L358.673 30.7188C358.595 31.0312 358.524 31.3438 358.459 31.6562C358.38 31.9557 358.289 32.3203 358.185 32.75H358.107C358.029 32.3203 357.957 31.9557 357.892 31.6562C357.814 31.3568 357.736 31.0443 357.658 30.7188L351.232 5.5625H350.002L343.576 30.7188C343.485 31.0443 343.407 31.3568 343.341 31.6562C343.276 31.9557 343.192 32.3203 343.088 32.75H342.99C342.912 32.3203 342.84 31.9557 342.775 31.6562C342.697 31.3568 342.619 31.0378 342.541 30.6992L336.798 5.5625H335.783L342.638 34.1758H343.634L350.099 9.05859C350.19 8.73307 350.295 8.33594 350.412 7.86719C350.516 7.39844 350.594 6.97526 350.646 6.59766H350.744C350.809 6.97526 350.894 7.39844 350.998 7.86719C351.102 8.32292 351.2 8.72005 351.291 9.05859L357.697 34.1758H358.673ZM329.671 34V5.5625H314.593V6.48047H328.675V18.8438H316.566V19.7617H328.675V33.082H314.398V34H329.671ZM308.657 34V5.5625H300.864C298.364 5.5625 296.411 6.09635 295.005 7.16406C293.598 8.23177 292.895 10.0221 292.895 12.5352C292.895 14.3971 293.345 15.8945 294.243 17.0273C295.128 18.1471 296.32 18.8242 297.817 19.0586V19.1172C296.124 19.3255 294.751 20.0417 293.696 21.2656C292.628 22.4766 292.095 24.1628 292.095 26.3242C292.095 28.7591 292.791 30.6471 294.184 31.9883C295.565 33.3294 297.576 34 300.22 34H308.657ZM307.661 33.1016H300.161C297.752 33.1016 295.975 32.5091 294.829 31.3242C293.67 30.1263 293.091 28.4661 293.091 26.3438C293.091 24.2734 293.67 22.6328 294.829 21.4219C295.975 20.2109 297.752 19.6055 300.161 19.6055H307.661V33.1016ZM307.661 18.707H300.591C298.169 18.707 296.444 18.1536 295.415 17.0469C294.386 15.9271 293.872 14.4232 293.872 12.5352C293.872 10.3997 294.464 8.85677 295.649 7.90625C296.821 6.94271 298.559 6.46094 300.864 6.46094H307.661V18.707ZM287.584 26.793V25.8555H286.588V26.6758C286.588 28.8503 285.885 30.543 284.479 31.7539C283.073 32.9518 281.133 33.5508 278.659 33.5508C276.224 33.5508 274.329 32.9518 272.975 31.7539C271.608 30.543 270.924 29.0065 270.924 27.1445C270.924 25.3607 271.452 23.9284 272.506 22.8477C273.548 21.7669 275.638 20.7318 278.776 19.7422C281.875 18.7656 284.036 17.7174 285.26 16.5977C286.484 15.4648 287.096 13.8958 287.096 11.8906C287.096 9.82031 286.38 8.16667 284.948 6.92969C283.502 5.69271 281.465 5.07422 278.834 5.07422C276.074 5.07422 273.997 5.82292 272.604 7.32031C271.198 8.81771 270.495 10.5234 270.495 12.4375V13.2773H271.491V12.457C271.491 10.7383 272.077 9.23438 273.248 7.94531C274.42 6.65625 276.276 6.01172 278.815 6.01172C281.289 6.01172 283.125 6.53906 284.323 7.59375C285.508 8.63542 286.1 10.0742 286.1 11.9102C286.1 13.5768 285.54 14.918 284.42 15.9336C283.288 16.9492 281.178 17.9453 278.092 18.9219C275.019 19.8984 272.897 20.9857 271.725 22.1836C270.54 23.3685 269.948 25.0156 269.948 27.125C269.948 29.2995 270.735 31.0703 272.311 32.4375C273.873 33.8047 275.996 34.4883 278.678 34.4883C281.373 34.4883 283.535 33.7982 285.163 32.418C286.777 31.0378 287.584 29.1628 287.584 26.793ZM264.031 34V5.5625H263.055V34H264.031ZM257.88 6.48047V5.5625H238.232V6.48047H247.568V34H248.545V6.48047H257.88ZM233.195 34V5.5625H218.116V6.48047H232.198V18.8438H220.089V19.7617H232.198V33.082H217.921V34H233.195ZM202.612 34V5.5625H195.913C192.345 5.5625 189.513 6.81901 187.416 9.33203C185.32 11.832 184.272 15.1589 184.272 19.3125V20.25C184.272 24.651 185.385 28.043 187.612 30.4258C189.825 32.8086 192.592 34 195.913 34H202.612ZM201.616 33.082H195.913C192.84 33.082 190.301 31.9688 188.295 29.7422C186.29 27.5156 185.288 24.3451 185.288 20.2305V19.3711C185.288 15.4518 186.232 12.3268 188.12 9.99609C190.008 7.65234 192.605 6.48047 195.913 6.48047H201.616V33.082ZM177.535 34V5.5625H162.457V6.48047H176.539V18.8438H164.43V19.7617H176.539V33.082H162.262V34H177.535ZM159.627 5.5625H158.533L149.724 30.8164C149.594 31.1549 149.451 31.5456 149.295 31.9883C149.138 32.418 148.989 32.8542 148.845 33.2969H148.748C148.604 32.8542 148.461 32.418 148.318 31.9883C148.162 31.5586 148.012 31.1549 147.869 30.7773L139.041 5.5625H138.025L148.22 34.1758H149.451L159.627 5.5625ZM133.32 34V5.5625H118.241V6.48047H132.323V18.8438H120.214V19.7617H132.323V33.082H118.046V34H133.32ZM112.305 34V5.5625H111.309V33.082H97.8133V34H112.305ZM93.7524 20.1523V19.2539C93.7524 14.3971 92.7758 10.8229 90.8227 8.53125C88.8696 6.22656 86.311 5.07422 83.1469 5.07422C79.9698 5.07422 77.4047 6.22656 75.4516 8.53125C73.4985 10.8229 72.5219 14.3971 72.5219 19.2539V20.1523C72.5219 25.1393 73.4985 28.7786 75.4516 31.0703C77.4047 33.349 79.9698 34.4883 83.1469 34.4883C86.298 34.4883 88.8565 33.349 90.8227 31.0703C92.7758 28.7786 93.7524 25.1393 93.7524 20.1523ZM92.7563 20.3281C92.7563 24.9245 91.8774 28.2773 90.1196 30.3867C88.3618 32.4961 86.0375 33.5508 83.1469 33.5508C80.2302 33.5508 77.8995 32.4961 76.1547 30.3867C74.3969 28.2773 73.518 24.918 73.518 20.3086V19.0586C73.518 14.6055 74.3969 11.3177 76.1547 9.19531C77.8995 7.07292 80.2302 6.01172 83.1469 6.01172C86.0375 6.01172 88.3618 7.07292 90.1196 9.19531C91.8774 11.3177 92.7563 14.6055 92.7563 19.0586V20.3281ZM65.7852 34V5.5625H58.0898C55.2773 5.5625 53.181 6.30469 51.8008 7.78906C50.4076 9.27344 49.7109 11.2266 49.7109 13.6484C49.7109 16.0573 50.4076 18.0104 51.8008 19.5078C53.181 21.0052 55.2773 21.7539 58.0898 21.7539H64.7891V34H65.7852ZM64.7891 20.8359H58.207C55.5247 20.8359 53.6042 20.1654 52.4453 18.8242C51.2865 17.4701 50.707 15.7448 50.707 13.6484C50.707 11.5521 51.2865 9.83333 52.4453 8.49219C53.5911 7.15104 55.5052 6.48047 58.1875 6.48047H64.7891V20.8359ZM44.0289 34V5.5625H28.9508V6.48047H43.0328V18.8438H30.9235V19.7617H43.0328V33.082H28.7555V34H44.0289ZM23.0148 34V5.5625H15.3976C12.7154 5.5625 10.6841 6.27865 9.30389 7.71094C7.92369 9.13021 7.23358 11.0247 7.23358 13.3945C7.23358 15.7904 7.91066 17.7109 9.26483 19.1562C10.606 20.5885 12.6502 21.3047 15.3976 21.3047H22.0187V34H23.0148ZM22.0187 20.4062H15.3976C12.8586 20.4062 11.0292 19.7617 9.90936 18.4727C8.78957 17.1836 8.22968 15.4909 8.22968 13.3945C8.22968 11.3242 8.8091 9.65104 9.96796 8.375C11.1138 7.09896 12.9237 6.46094 15.3976 6.46094H22.0187V20.4062ZM7.21405 34L14.0891 20.7773H12.9367L5.98358 34H7.21405Z" fill="white"/>
</g>
<defs>
<filter id="filter0_f_300_116" x="0.983398" y="0.0742188" width="742.525" height="39.4141" filterUnits="userSpaceOnUse" color-interpolation-filters="sRGB">
<feFlood flood-opacity="0" result="BackgroundImageFix"/>
<feBlend mode="normal" in="SourceGraphic" in2="BackgroundImageFix" result="shape"/>
<feGaussianBlur stdDeviation="2.5" result="effect1_foregroundBlur_300_116"/>
</filter>
</defs>
</svg>
