<svg width="1374" height="35" viewBox="0 0 1374 35" fill="none" xmlns="http://www.w3.org/2000/svg">
<g filter="url(#filter0_f_300_93)">
<path d="M8.35156 32.1758L1.49609 3.5625H2.57031L8.35156 28.7188C8.42969 29.0312 8.5013 29.3438 8.56641 29.6562C8.64453 29.9557 8.73568 30.3203 8.83984 30.75H8.91797C8.99609 30.3203 9.06771 29.9557 9.13281 29.6562C9.21094 29.3568 9.28906 29.0443 9.36719 28.7188L15.793 3.5625H17.0234L23.4492 28.7188C23.5404 29.0443 23.6185 29.3568 23.6836 29.6562C23.7487 29.9557 23.8333 30.3203 23.9375 30.75H24.0352C24.1133 30.3203 24.1849 29.9557 24.25 29.6562C24.3281 29.3568 24.4062 29.0378 24.4844 28.6992L30.2266 3.5625H31.2422L24.3867 32.1758H23.3906L16.9258 7.05859C16.8346 6.73307 16.7305 6.33594 16.6133 5.86719C16.5091 5.39844 16.431 4.97526 16.3789 4.59766H16.2812C16.2161 4.97526 16.1315 5.39844 16.0273 5.86719C15.9232 6.32292 15.8255 6.72005 15.7344 7.05859L9.32812 32.1758H8.35156ZM35.7539 32V3.5625H50.832V4.48047H36.75V16.8438H48.8594V17.7617H36.75V31.082H51.0273V32H35.7539ZM55.168 32V3.5625H62.9609C65.4609 3.5625 67.4141 4.09635 68.8203 5.16406C70.2266 6.23177 70.9297 8.02214 70.9297 10.5352C70.9297 12.3971 70.4805 13.8945 69.582 15.0273C68.6966 16.1471 67.5052 16.8242 66.0078 17.0586V17.1172C67.7005 17.3255 69.0742 18.0417 70.1289 19.2656C71.1966 20.4766 71.7305 22.1628 71.7305 24.3242C71.7305 26.7591 71.0339 28.6471 69.6406 29.9883C68.2604 31.3294 66.2487 32 63.6055 32H55.168ZM56.1641 31.1016H63.6641C66.0729 31.1016 67.8503 30.5091 68.9961 29.3242C70.1549 28.1263 70.7344 26.4661 70.7344 24.3438C70.7344 22.2734 70.1549 20.6328 68.9961 19.4219C67.8503 18.2109 66.0729 17.6055 63.6641 17.6055H56.1641V31.1016ZM56.1641 16.707H63.2344C65.6562 16.707 67.3815 16.1536 68.4102 15.0469C69.4388 13.9271 69.9531 12.4232 69.9531 10.5352C69.9531 8.39974 69.3607 6.85677 68.1758 5.90625C67.0039 4.94271 65.2656 4.46094 62.9609 4.46094H56.1641V16.707ZM74.6406 24.793V23.8555H75.6367V24.6758C75.6367 26.8503 76.3398 28.543 77.7461 29.7539C79.1523 30.9518 81.0924 31.5508 83.5664 31.5508C86.0013 31.5508 87.8958 30.9518 89.25 29.7539C90.6172 28.543 91.3008 27.0065 91.3008 25.1445C91.3008 23.3607 90.7734 21.9284 89.7188 20.8477C88.6771 19.7669 86.5872 18.7318 83.4492 17.7422C80.3503 16.7656 78.1888 15.7174 76.9648 14.5977C75.7409 13.4648 75.1289 11.8958 75.1289 9.89062C75.1289 7.82031 75.8451 6.16667 77.2773 4.92969C78.7227 3.69271 80.7604 3.07422 83.3906 3.07422C86.151 3.07422 88.2279 3.82292 89.6211 5.32031C91.0273 6.81771 91.7305 8.52344 91.7305 10.4375V11.2773H90.7344V10.457C90.7344 8.73828 90.1484 7.23438 88.9766 5.94531C87.8047 4.65625 85.9492 4.01172 83.4102 4.01172C80.9362 4.01172 79.1003 4.53906 77.9023 5.59375C76.7174 6.63542 76.125 8.07422 76.125 9.91016C76.125 11.5768 76.6849 12.918 77.8047 13.9336C78.9375 14.9492 81.0469 15.9453 84.1328 16.9219C87.2057 17.8984 89.3281 18.9857 90.5 20.1836C91.6849 21.3685 92.2773 23.0156 92.2773 25.125C92.2773 27.2995 91.4896 29.0703 89.9141 30.4375C88.3516 31.8047 86.2292 32.4883 83.5469 32.4883C80.8516 32.4883 78.6901 31.7982 77.0625 30.418C75.4479 29.0378 74.6406 27.1628 74.6406 24.793ZM96.5938 32V3.5625H97.5703V32H96.5938ZM101.145 4.48047V3.5625H120.793V4.48047H111.457V32H110.48V4.48047H101.145ZM124.23 32V3.5625H139.309V4.48047H125.227V16.8438H137.336V17.7617H125.227V31.082H139.504V32H124.23ZM151.613 32V3.5625H158.312C161.88 3.5625 164.712 4.81901 166.809 7.33203C168.905 9.83203 169.953 13.1589 169.953 17.3125V18.25C169.953 22.651 168.84 26.043 166.613 28.4258C164.4 30.8086 161.633 32 158.312 32H151.613ZM152.609 31.082H158.312C161.385 31.082 163.924 29.9688 165.93 27.7422C167.935 25.5156 168.938 22.3451 168.938 18.2305V17.3711C168.938 13.4518 167.993 10.3268 166.105 7.99609C164.217 5.65234 161.62 4.48047 158.312 4.48047H152.609V31.082ZM175.09 32V3.5625H190.168V4.48047H176.086V16.8438H188.195V17.7617H176.086V31.082H190.363V32H175.09ZM191.398 3.5625H192.492L201.301 28.8164C201.431 29.1549 201.574 29.5456 201.73 29.9883C201.887 30.418 202.036 30.8542 202.18 31.2969H202.277C202.421 30.8542 202.564 30.418 202.707 29.9883C202.863 29.5586 203.013 29.1549 203.156 28.7773L211.984 3.5625H213L202.805 32.1758H201.574L191.398 3.5625ZM216.105 32V3.5625H231.184V4.48047H217.102V16.8438H229.211V17.7617H217.102V31.082H231.379V32H216.105ZM235.52 32V3.5625H236.516V31.082H250.012V32H235.52ZM252.473 18.1523V17.2539C252.473 12.3971 253.449 8.82292 255.402 6.53125C257.355 4.22656 259.914 3.07422 263.078 3.07422C266.255 3.07422 268.82 4.22656 270.773 6.53125C272.727 8.82292 273.703 12.3971 273.703 17.2539V18.1523C273.703 23.1393 272.727 26.7786 270.773 29.0703C268.82 31.349 266.255 32.4883 263.078 32.4883C259.927 32.4883 257.368 31.349 255.402 29.0703C253.449 26.7786 252.473 23.1393 252.473 18.1523ZM253.469 18.3281C253.469 22.9245 254.348 26.2773 256.105 28.3867C257.863 30.4961 260.188 31.5508 263.078 31.5508C265.995 31.5508 268.326 30.4961 270.07 28.3867C271.828 26.2773 272.707 22.918 272.707 18.3086V17.0586C272.707 12.6055 271.828 9.31771 270.07 7.19531C268.326 5.07292 265.995 4.01172 263.078 4.01172C260.188 4.01172 257.863 5.07292 256.105 7.19531C254.348 9.31771 253.469 12.6055 253.469 17.0586V18.3281ZM278.84 32V3.5625H286.535C289.348 3.5625 291.444 4.30469 292.824 5.78906C294.217 7.27344 294.914 9.22656 294.914 11.6484C294.914 14.0573 294.217 16.0104 292.824 17.5078C291.444 19.0052 289.348 19.7539 286.535 19.7539H279.836V32H278.84ZM279.836 18.8359H286.418C289.1 18.8359 291.021 18.1654 292.18 16.8242C293.339 15.4701 293.918 13.7448 293.918 11.6484C293.918 9.55208 293.339 7.83333 292.18 6.49219C291.034 5.15104 289.12 4.48047 286.438 4.48047H279.836V18.8359ZM298.996 32V3.5625H314.074V4.48047H299.992V16.8438H312.102V17.7617H299.992V31.082H314.27V32H298.996ZM318.41 32V3.5625H326.027C328.71 3.5625 330.741 4.27865 332.121 5.71094C333.501 7.13021 334.191 9.02474 334.191 11.3945C334.191 13.7904 333.514 15.7109 332.16 17.1562C330.819 18.5885 328.775 19.3047 326.027 19.3047H319.406V32H318.41ZM319.406 18.4062H326.027C328.566 18.4062 330.396 17.7617 331.516 16.4727C332.635 15.1836 333.195 13.4909 333.195 11.3945C333.195 9.32422 332.616 7.65104 331.457 6.375C330.311 5.09896 328.501 4.46094 326.027 4.46094H319.406V18.4062ZM334.211 32L327.336 18.7773H328.488L335.441 32H334.211ZM354.562 32.1758L347.707 3.5625H348.781L354.562 28.7188C354.641 29.0312 354.712 29.3438 354.777 29.6562C354.855 29.9557 354.947 30.3203 355.051 30.75H355.129C355.207 30.3203 355.279 29.9557 355.344 29.6562C355.422 29.3568 355.5 29.0443 355.578 28.7188L362.004 3.5625H363.234L369.66 28.7188C369.751 29.0443 369.829 29.3568 369.895 29.6562C369.96 29.9557 370.044 30.3203 370.148 30.75H370.246C370.324 30.3203 370.396 29.9557 370.461 29.6562C370.539 29.3568 370.617 29.0378 370.695 28.6992L376.438 3.5625H377.453L370.598 32.1758H369.602L363.137 7.05859C363.046 6.73307 362.941 6.33594 362.824 5.86719C362.72 5.39844 362.642 4.97526 362.59 4.59766H362.492C362.427 4.97526 362.342 5.39844 362.238 5.86719C362.134 6.32292 362.036 6.72005 361.945 7.05859L355.539 32.1758H354.562ZM381.965 32V3.5625H397.043V4.48047H382.961V16.8438H395.07V17.7617H382.961V31.082H397.238V32H381.965ZM401.379 32V3.5625H409.172C411.672 3.5625 413.625 4.09635 415.031 5.16406C416.438 6.23177 417.141 8.02214 417.141 10.5352C417.141 12.3971 416.691 13.8945 415.793 15.0273C414.908 16.1471 413.716 16.8242 412.219 17.0586V17.1172C413.911 17.3255 415.285 18.0417 416.34 19.2656C417.408 20.4766 417.941 22.1628 417.941 24.3242C417.941 26.7591 417.245 28.6471 415.852 29.9883C414.471 31.3294 412.46 32 409.816 32H401.379ZM402.375 31.1016H409.875C412.284 31.1016 414.061 30.5091 415.207 29.3242C416.366 28.1263 416.945 26.4661 416.945 24.3438C416.945 22.2734 416.366 20.6328 415.207 19.4219C414.061 18.2109 412.284 17.6055 409.875 17.6055H402.375V31.1016ZM402.375 16.707H409.445C411.867 16.707 413.592 16.1536 414.621 15.0469C415.65 13.9271 416.164 12.4232 416.164 10.5352C416.164 8.39974 415.572 6.85677 414.387 5.90625C413.215 4.94271 411.477 4.46094 409.172 4.46094H402.375V16.707ZM420.852 24.793V23.8555H421.848V24.6758C421.848 26.8503 422.551 28.543 423.957 29.7539C425.363 30.9518 427.303 31.5508 429.777 31.5508C432.212 31.5508 434.107 30.9518 435.461 29.7539C436.828 28.543 437.512 27.0065 437.512 25.1445C437.512 23.3607 436.984 21.9284 435.93 20.8477C434.888 19.7669 432.798 18.7318 429.66 17.7422C426.561 16.7656 424.4 15.7174 423.176 14.5977C421.952 13.4648 421.34 11.8958 421.34 9.89062C421.34 7.82031 422.056 6.16667 423.488 4.92969C424.934 3.69271 426.971 3.07422 429.602 3.07422C432.362 3.07422 434.439 3.82292 435.832 5.32031C437.238 6.81771 437.941 8.52344 437.941 10.4375V11.2773H436.945V10.457C436.945 8.73828 436.359 7.23438 435.188 5.94531C434.016 4.65625 432.16 4.01172 429.621 4.01172C427.147 4.01172 425.311 4.53906 424.113 5.59375C422.928 6.63542 422.336 8.07422 422.336 9.91016C422.336 11.5768 422.896 12.918 424.016 13.9336C425.148 14.9492 427.258 15.9453 430.344 16.9219C433.417 17.8984 435.539 18.9857 436.711 20.1836C437.896 21.3685 438.488 23.0156 438.488 25.125C438.488 27.2995 437.701 29.0703 436.125 30.4375C434.562 31.8047 432.44 32.4883 429.758 32.4883C427.062 32.4883 424.901 31.7982 423.273 30.418C421.659 29.0378 420.852 27.1628 420.852 24.793ZM442.805 32V3.5625H443.781V32H442.805ZM447.355 4.48047V3.5625H467.004V4.48047H457.668V32H456.691V4.48047H447.355ZM470.441 32V3.5625H485.52V4.48047H471.438V16.8438H483.547V17.7617H471.438V31.082H485.715V32H470.441ZM497.824 32V3.5625H504.523C508.091 3.5625 510.923 4.81901 513.02 7.33203C515.116 9.83203 516.164 13.1589 516.164 17.3125V18.25C516.164 22.651 515.051 26.043 512.824 28.4258C510.611 30.8086 507.844 32 504.523 32H497.824ZM498.82 31.082H504.523C507.596 31.082 510.135 29.9688 512.141 27.7422C514.146 25.5156 515.148 22.3451 515.148 18.2305V17.3711C515.148 13.4518 514.204 10.3268 512.316 7.99609C510.428 5.65234 507.831 4.48047 504.523 4.48047H498.82V31.082ZM521.301 32V3.5625H536.379V4.48047H522.297V16.8438H534.406V17.7617H522.297V31.082H536.574V32H521.301ZM537.609 3.5625H538.703L547.512 28.8164C547.642 29.1549 547.785 29.5456 547.941 29.9883C548.098 30.418 548.247 30.8542 548.391 31.2969H548.488C548.632 30.8542 548.775 30.418 548.918 29.9883C549.074 29.5586 549.224 29.1549 549.367 28.7773L558.195 3.5625H559.211L549.016 32.1758H547.785L537.609 3.5625ZM562.316 32V3.5625H577.395V4.48047H563.312V16.8438H575.422V17.7617H563.312V31.082H577.59V32H562.316ZM581.73 32V3.5625H582.727V31.082H596.223V32H581.73ZM598.684 18.1523V17.2539C598.684 12.3971 599.66 8.82292 601.613 6.53125C603.566 4.22656 606.125 3.07422 609.289 3.07422C612.466 3.07422 615.031 4.22656 616.984 6.53125C618.938 8.82292 619.914 12.3971 619.914 17.2539V18.1523C619.914 23.1393 618.938 26.7786 616.984 29.0703C615.031 31.349 612.466 32.4883 609.289 32.4883C606.138 32.4883 603.579 31.349 601.613 29.0703C599.66 26.7786 598.684 23.1393 598.684 18.1523ZM599.68 18.3281C599.68 22.9245 600.559 26.2773 602.316 28.3867C604.074 30.4961 606.398 31.5508 609.289 31.5508C612.206 31.5508 614.536 30.4961 616.281 28.3867C618.039 26.2773 618.918 22.918 618.918 18.3086V17.0586C618.918 12.6055 618.039 9.31771 616.281 7.19531C614.536 5.07292 612.206 4.01172 609.289 4.01172C606.398 4.01172 604.074 5.07292 602.316 7.19531C600.559 9.31771 599.68 12.6055 599.68 17.0586V18.3281ZM625.051 32V3.5625H632.746C635.559 3.5625 637.655 4.30469 639.035 5.78906C640.428 7.27344 641.125 9.22656 641.125 11.6484C641.125 14.0573 640.428 16.0104 639.035 17.5078C637.655 19.0052 635.559 19.7539 632.746 19.7539H626.047V32H625.051ZM626.047 18.8359H632.629C635.311 18.8359 637.232 18.1654 638.391 16.8242C639.549 15.4701 640.129 13.7448 640.129 11.6484C640.129 9.55208 639.549 7.83333 638.391 6.49219C637.245 5.15104 635.331 4.48047 632.648 4.48047H626.047V18.8359ZM645.207 32V3.5625H660.285V4.48047H646.203V16.8438H658.312V17.7617H646.203V31.082H660.48V32H645.207ZM664.621 32V3.5625H672.238C674.921 3.5625 676.952 4.27865 678.332 5.71094C679.712 7.13021 680.402 9.02474 680.402 11.3945C680.402 13.7904 679.725 15.7109 678.371 17.1562C677.03 18.5885 674.986 19.3047 672.238 19.3047H665.617V32H664.621ZM665.617 18.4062H672.238C674.777 18.4062 676.607 17.7617 677.727 16.4727C678.846 15.1836 679.406 13.4909 679.406 11.3945C679.406 9.32422 678.827 7.65104 677.668 6.375C676.522 5.09896 674.712 4.46094 672.238 4.46094H665.617V18.4062ZM680.422 32L673.547 18.7773H674.699L681.652 32H680.422ZM698.742 32.1758L691.887 3.5625H692.961L698.742 28.7188C698.82 29.0312 698.892 29.3438 698.957 29.6562C699.035 29.9557 699.126 30.3203 699.23 30.75H699.309C699.387 30.3203 699.458 29.9557 699.523 29.6562C699.602 29.3568 699.68 29.0443 699.758 28.7188L706.184 3.5625H707.414L713.84 28.7188C713.931 29.0443 714.009 29.3568 714.074 29.6562C714.139 29.9557 714.224 30.3203 714.328 30.75H714.426C714.504 30.3203 714.576 29.9557 714.641 29.6562C714.719 29.3568 714.797 29.0378 714.875 28.6992L720.617 3.5625H721.633L714.777 32.1758H713.781L707.316 7.05859C707.225 6.73307 707.121 6.33594 707.004 5.86719C706.9 5.39844 706.822 4.97526 706.77 4.59766H706.672C706.607 4.97526 706.522 5.39844 706.418 5.86719C706.314 6.32292 706.216 6.72005 706.125 7.05859L699.719 32.1758H698.742ZM726.145 32V3.5625H741.223V4.48047H727.141V16.8438H739.25V17.7617H727.141V31.082H741.418V32H726.145ZM745.559 32V3.5625H753.352C755.852 3.5625 757.805 4.09635 759.211 5.16406C760.617 6.23177 761.32 8.02214 761.32 10.5352C761.32 12.3971 760.871 13.8945 759.973 15.0273C759.087 16.1471 757.896 16.8242 756.398 17.0586V17.1172C758.091 17.3255 759.465 18.0417 760.52 19.2656C761.587 20.4766 762.121 22.1628 762.121 24.3242C762.121 26.7591 761.424 28.6471 760.031 29.9883C758.651 31.3294 756.639 32 753.996 32H745.559ZM746.555 31.1016H754.055C756.464 31.1016 758.241 30.5091 759.387 29.3242C760.546 28.1263 761.125 26.4661 761.125 24.3438C761.125 22.2734 760.546 20.6328 759.387 19.4219C758.241 18.2109 756.464 17.6055 754.055 17.6055H746.555V31.1016ZM746.555 16.707H753.625C756.047 16.707 757.772 16.1536 758.801 15.0469C759.829 13.9271 760.344 12.4232 760.344 10.5352C760.344 8.39974 759.751 6.85677 758.566 5.90625C757.395 4.94271 755.656 4.46094 753.352 4.46094H746.555V16.707ZM765.031 24.793V23.8555H766.027V24.6758C766.027 26.8503 766.73 28.543 768.137 29.7539C769.543 30.9518 771.483 31.5508 773.957 31.5508C776.392 31.5508 778.286 30.9518 779.641 29.7539C781.008 28.543 781.691 27.0065 781.691 25.1445C781.691 23.3607 781.164 21.9284 780.109 20.8477C779.068 19.7669 776.978 18.7318 773.84 17.7422C770.741 16.7656 768.579 15.7174 767.355 14.5977C766.132 13.4648 765.52 11.8958 765.52 9.89062C765.52 7.82031 766.236 6.16667 767.668 4.92969C769.113 3.69271 771.151 3.07422 773.781 3.07422C776.542 3.07422 778.618 3.82292 780.012 5.32031C781.418 6.81771 782.121 8.52344 782.121 10.4375V11.2773H781.125V10.457C781.125 8.73828 780.539 7.23438 779.367 5.94531C778.195 4.65625 776.34 4.01172 773.801 4.01172C771.327 4.01172 769.491 4.53906 768.293 5.59375C767.108 6.63542 766.516 8.07422 766.516 9.91016C766.516 11.5768 767.076 12.918 768.195 13.9336C769.328 14.9492 771.438 15.9453 774.523 16.9219C777.596 17.8984 779.719 18.9857 780.891 20.1836C782.076 21.3685 782.668 23.0156 782.668 25.125C782.668 27.2995 781.88 29.0703 780.305 30.4375C778.742 31.8047 776.62 32.4883 773.938 32.4883C771.242 32.4883 769.081 31.7982 767.453 30.418C765.839 29.0378 765.031 27.1628 765.031 24.793ZM786.984 32V3.5625H787.961V32H786.984ZM791.535 4.48047V3.5625H811.184V4.48047H801.848V32H800.871V4.48047H791.535ZM814.621 32V3.5625H829.699V4.48047H815.617V16.8438H827.727V17.7617H815.617V31.082H829.895V32H814.621ZM842.004 32V3.5625H848.703C852.271 3.5625 855.103 4.81901 857.199 7.33203C859.296 9.83203 860.344 13.1589 860.344 17.3125V18.25C860.344 22.651 859.23 26.043 857.004 28.4258C854.79 30.8086 852.023 32 848.703 32H842.004ZM843 31.082H848.703C851.776 31.082 854.315 29.9688 856.32 27.7422C858.326 25.5156 859.328 22.3451 859.328 18.2305V17.3711C859.328 13.4518 858.384 10.3268 856.496 7.99609C854.608 5.65234 852.01 4.48047 848.703 4.48047H843V31.082ZM865.48 32V3.5625H880.559V4.48047H866.477V16.8438H878.586V17.7617H866.477V31.082H880.754V32H865.48ZM881.789 3.5625H882.883L891.691 28.8164C891.822 29.1549 891.965 29.5456 892.121 29.9883C892.277 30.418 892.427 30.8542 892.57 31.2969H892.668C892.811 30.8542 892.954 30.418 893.098 29.9883C893.254 29.5586 893.404 29.1549 893.547 28.7773L902.375 3.5625H903.391L893.195 32.1758H891.965L881.789 3.5625ZM906.496 32V3.5625H921.574V4.48047H907.492V16.8438H919.602V17.7617H907.492V31.082H921.77V32H906.496ZM925.91 32V3.5625H926.906V31.082H940.402V32H925.91ZM942.863 18.1523V17.2539C942.863 12.3971 943.84 8.82292 945.793 6.53125C947.746 4.22656 950.305 3.07422 953.469 3.07422C956.646 3.07422 959.211 4.22656 961.164 6.53125C963.117 8.82292 964.094 12.3971 964.094 17.2539V18.1523C964.094 23.1393 963.117 26.7786 961.164 29.0703C959.211 31.349 956.646 32.4883 953.469 32.4883C950.318 32.4883 947.759 31.349 945.793 29.0703C943.84 26.7786 942.863 23.1393 942.863 18.1523ZM943.859 18.3281C943.859 22.9245 944.738 26.2773 946.496 28.3867C948.254 30.4961 950.578 31.5508 953.469 31.5508C956.385 31.5508 958.716 30.4961 960.461 28.3867C962.219 26.2773 963.098 22.918 963.098 18.3086V17.0586C963.098 12.6055 962.219 9.31771 960.461 7.19531C958.716 5.07292 956.385 4.01172 953.469 4.01172C950.578 4.01172 948.254 5.07292 946.496 7.19531C944.738 9.31771 943.859 12.6055 943.859 17.0586V18.3281ZM969.23 32V3.5625H976.926C979.738 3.5625 981.835 4.30469 983.215 5.78906C984.608 7.27344 985.305 9.22656 985.305 11.6484C985.305 14.0573 984.608 16.0104 983.215 17.5078C981.835 19.0052 979.738 19.7539 976.926 19.7539H970.227V32H969.23ZM970.227 18.8359H976.809C979.491 18.8359 981.411 18.1654 982.57 16.8242C983.729 15.4701 984.309 13.7448 984.309 11.6484C984.309 9.55208 983.729 7.83333 982.57 6.49219C981.424 5.15104 979.51 4.48047 976.828 4.48047H970.227V18.8359ZM989.387 32V3.5625H1004.46V4.48047H990.383V16.8438H1002.49V17.7617H990.383V31.082H1004.66V32H989.387ZM1008.8 32V3.5625H1016.42C1019.1 3.5625 1021.13 4.27865 1022.51 5.71094C1023.89 7.13021 1024.58 9.02474 1024.58 11.3945C1024.58 13.7904 1023.9 15.7109 1022.55 17.1562C1021.21 18.5885 1019.17 19.3047 1016.42 19.3047H1009.8V32H1008.8ZM1009.8 18.4062H1016.42C1018.96 18.4062 1020.79 17.7617 1021.91 16.4727C1023.03 15.1836 1023.59 13.4909 1023.59 11.3945C1023.59 9.32422 1023.01 7.65104 1021.85 6.375C1020.7 5.09896 1018.89 4.46094 1016.42 4.46094H1009.8V18.4062ZM1024.6 32L1017.73 18.7773H1018.88L1025.83 32H1024.6ZM1042.92 32.1758L1036.07 3.5625H1037.14L1042.92 28.7188C1043 29.0312 1043.07 29.3438 1043.14 29.6562C1043.21 29.9557 1043.31 30.3203 1043.41 30.75H1043.49C1043.57 30.3203 1043.64 29.9557 1043.7 29.6562C1043.78 29.3568 1043.86 29.0443 1043.94 28.7188L1050.36 3.5625H1051.59L1058.02 28.7188C1058.11 29.0443 1058.19 29.3568 1058.25 29.6562C1058.32 29.9557 1058.4 30.3203 1058.51 30.75H1058.61C1058.68 30.3203 1058.76 29.9557 1058.82 29.6562C1058.9 29.3568 1058.98 29.0378 1059.05 28.6992L1064.8 3.5625H1065.81L1058.96 32.1758H1057.96L1051.5 7.05859C1051.4 6.73307 1051.3 6.33594 1051.18 5.86719C1051.08 5.39844 1051 4.97526 1050.95 4.59766H1050.85C1050.79 4.97526 1050.7 5.39844 1050.6 5.86719C1050.49 6.32292 1050.4 6.72005 1050.3 7.05859L1043.9 32.1758H1042.92ZM1070.32 32V3.5625H1085.4V4.48047H1071.32V16.8438H1083.43V17.7617H1071.32V31.082H1085.6V32H1070.32ZM1089.74 32V3.5625H1097.53C1100.03 3.5625 1101.98 4.09635 1103.39 5.16406C1104.8 6.23177 1105.5 8.02214 1105.5 10.5352C1105.5 12.3971 1105.05 13.8945 1104.15 15.0273C1103.27 16.1471 1102.08 16.8242 1100.58 17.0586V17.1172C1102.27 17.3255 1103.64 18.0417 1104.7 19.2656C1105.77 20.4766 1106.3 22.1628 1106.3 24.3242C1106.3 26.7591 1105.6 28.6471 1104.21 29.9883C1102.83 31.3294 1100.82 32 1098.18 32H1089.74ZM1090.73 31.1016H1098.23C1100.64 31.1016 1102.42 30.5091 1103.57 29.3242C1104.73 28.1263 1105.3 26.4661 1105.3 24.3438C1105.3 22.2734 1104.73 20.6328 1103.57 19.4219C1102.42 18.2109 1100.64 17.6055 1098.23 17.6055H1090.73V31.1016ZM1090.73 16.707H1097.8C1100.23 16.707 1101.95 16.1536 1102.98 15.0469C1104.01 13.9271 1104.52 12.4232 1104.52 10.5352C1104.52 8.39974 1103.93 6.85677 1102.75 5.90625C1101.57 4.94271 1099.84 4.46094 1097.53 4.46094H1090.73V16.707ZM1109.21 24.793V23.8555H1110.21V24.6758C1110.21 26.8503 1110.91 28.543 1112.32 29.7539C1113.72 30.9518 1115.66 31.5508 1118.14 31.5508C1120.57 31.5508 1122.47 30.9518 1123.82 29.7539C1125.19 28.543 1125.87 27.0065 1125.87 25.1445C1125.87 23.3607 1125.34 21.9284 1124.29 20.8477C1123.25 19.7669 1121.16 18.7318 1118.02 17.7422C1114.92 16.7656 1112.76 15.7174 1111.54 14.5977C1110.31 13.4648 1109.7 11.8958 1109.7 9.89062C1109.7 7.82031 1110.42 6.16667 1111.85 4.92969C1113.29 3.69271 1115.33 3.07422 1117.96 3.07422C1120.72 3.07422 1122.8 3.82292 1124.19 5.32031C1125.6 6.81771 1126.3 8.52344 1126.3 10.4375V11.2773H1125.3V10.457C1125.3 8.73828 1124.72 7.23438 1123.55 5.94531C1122.38 4.65625 1120.52 4.01172 1117.98 4.01172C1115.51 4.01172 1113.67 4.53906 1112.47 5.59375C1111.29 6.63542 1110.7 8.07422 1110.7 9.91016C1110.7 11.5768 1111.26 12.918 1112.38 13.9336C1113.51 14.9492 1115.62 15.9453 1118.7 16.9219C1121.78 17.8984 1123.9 18.9857 1125.07 20.1836C1126.26 21.3685 1126.85 23.0156 1126.85 25.125C1126.85 27.2995 1126.06 29.0703 1124.48 30.4375C1122.92 31.8047 1120.8 32.4883 1118.12 32.4883C1115.42 32.4883 1113.26 31.7982 1111.63 30.418C1110.02 29.0378 1109.21 27.1628 1109.21 24.793ZM1131.16 32V3.5625H1132.14V32H1131.16ZM1135.71 4.48047V3.5625H1155.36V4.48047H1146.03V32H1145.05V4.48047H1135.71ZM1158.8 32V3.5625H1173.88V4.48047H1159.8V16.8438H1171.91V17.7617H1159.8V31.082H1174.07V32H1158.8ZM1186.18 32V3.5625H1192.88C1196.45 3.5625 1199.28 4.81901 1201.38 7.33203C1203.48 9.83203 1204.52 13.1589 1204.52 17.3125V18.25C1204.52 22.651 1203.41 26.043 1201.18 28.4258C1198.97 30.8086 1196.2 32 1192.88 32H1186.18ZM1187.18 31.082H1192.88C1195.96 31.082 1198.49 29.9688 1200.5 27.7422C1202.51 25.5156 1203.51 22.3451 1203.51 18.2305V17.3711C1203.51 13.4518 1202.56 10.3268 1200.68 7.99609C1198.79 5.65234 1196.19 4.48047 1192.88 4.48047H1187.18V31.082ZM1209.66 32V3.5625H1224.74V4.48047H1210.66V16.8438H1222.77V17.7617H1210.66V31.082H1224.93V32H1209.66ZM1225.97 3.5625H1227.06L1235.87 28.8164C1236 29.1549 1236.14 29.5456 1236.3 29.9883C1236.46 30.418 1236.61 30.8542 1236.75 31.2969H1236.85C1236.99 30.8542 1237.13 30.418 1237.28 29.9883C1237.43 29.5586 1237.58 29.1549 1237.73 28.7773L1246.55 3.5625H1247.57L1237.38 32.1758H1236.14L1225.97 3.5625ZM1250.68 32V3.5625H1265.75V4.48047H1251.67V16.8438H1263.78V17.7617H1251.67V31.082H1265.95V32H1250.68ZM1270.09 32V3.5625H1271.09V31.082H1284.58V32H1270.09ZM1287.04 18.1523V17.2539C1287.04 12.3971 1288.02 8.82292 1289.97 6.53125C1291.93 4.22656 1294.48 3.07422 1297.65 3.07422C1300.83 3.07422 1303.39 4.22656 1305.34 6.53125C1307.3 8.82292 1308.27 12.3971 1308.27 17.2539V18.1523C1308.27 23.1393 1307.3 26.7786 1305.34 29.0703C1303.39 31.349 1300.83 32.4883 1297.65 32.4883C1294.5 32.4883 1291.94 31.349 1289.97 29.0703C1288.02 26.7786 1287.04 23.1393 1287.04 18.1523ZM1288.04 18.3281C1288.04 22.9245 1288.92 26.2773 1290.68 28.3867C1292.43 30.4961 1294.76 31.5508 1297.65 31.5508C1300.57 31.5508 1302.9 30.4961 1304.64 28.3867C1306.4 26.2773 1307.28 22.918 1307.28 18.3086V17.0586C1307.28 12.6055 1306.4 9.31771 1304.64 7.19531C1302.9 5.07292 1300.57 4.01172 1297.65 4.01172C1294.76 4.01172 1292.43 5.07292 1290.68 7.19531C1288.92 9.31771 1288.04 12.6055 1288.04 17.0586V18.3281ZM1313.41 32V3.5625H1321.11C1323.92 3.5625 1326.01 4.30469 1327.39 5.78906C1328.79 7.27344 1329.48 9.22656 1329.48 11.6484C1329.48 14.0573 1328.79 16.0104 1327.39 17.5078C1326.01 19.0052 1323.92 19.7539 1321.11 19.7539H1314.41V32H1313.41ZM1314.41 18.8359H1320.99C1323.67 18.8359 1325.59 18.1654 1326.75 16.8242C1327.91 15.4701 1328.49 13.7448 1328.49 11.6484C1328.49 9.55208 1327.91 7.83333 1326.75 6.49219C1325.6 5.15104 1323.69 4.48047 1321.01 4.48047H1314.41V18.8359ZM1333.57 32V3.5625H1348.64V4.48047H1334.56V16.8438H1346.67V17.7617H1334.56V31.082H1348.84V32H1333.57ZM1352.98 32V3.5625H1360.6C1363.28 3.5625 1365.31 4.27865 1366.69 5.71094C1368.07 7.13021 1368.76 9.02474 1368.76 11.3945C1368.76 13.7904 1368.08 15.7109 1366.73 17.1562C1365.39 18.5885 1363.35 19.3047 1360.6 19.3047H1353.98V32H1352.98ZM1353.98 18.4062H1360.6C1363.14 18.4062 1364.97 17.7617 1366.09 16.4727C1367.21 15.1836 1367.77 13.4909 1367.77 11.3945C1367.77 9.32422 1367.19 7.65104 1366.03 6.375C1364.88 5.09896 1363.07 4.46094 1360.6 4.46094H1353.98V18.4062ZM1368.78 32L1361.91 18.7773H1363.06L1370.01 32H1368.78Z" fill="white"/>
</g>
<defs>
<filter id="filter0_f_300_93" x="-1.50391" y="0.0742188" width="1374.52" height="35.4141" filterUnits="userSpaceOnUse" color-interpolation-filters="sRGB">
<feFlood flood-opacity="0" result="BackgroundImageFix"/>
<feBlend mode="normal" in="SourceGraphic" in2="BackgroundImageFix" result="shape"/>
<feGaussianBlur stdDeviation="1.5" result="effect1_foregroundBlur_300_93"/>
</filter>
</defs>
</svg>
