<svg width="1519" height="198" viewBox="0 0 1519 198" fill="none" xmlns="http://www.w3.org/2000/svg">
<path d="M63.8813 106.4V198H0.28125C39.2813 193.2 54.4813 166.6 61.8813 139.4V105.4C61.8813 104.8 61.6813 104.2 61.6813 102.8V101.2C61.6813 98.2 61.4813 95.4 61.4813 92.4V59.4C53.8813 32.6 38.6813 5.99999 0.28125 1.79999H63.4813C70.0813 2 78.4813 2.39999 83.8813 2.59999C129.681 4.19999 166.081 26.4 166.081 53C166.081 80.6 127.881 103.2 80.4813 103.8L63.6813 103L63.8813 106.4ZM63.4813 3.99999V87.6L63.6813 101.2L80.8813 101.6C113.481 101 138.881 80.6 138.881 53C138.881 29.2 120.481 6.79999 84.4813 4.59999C80.6813 3.99999 74.0813 3.99999 68.6813 3.99999H63.4813ZM288.297 179.8H286.097C242.697 176.6 207.897 141.2 207.897 97.2C207.897 52.8 242.497 17.8 286.097 14.6L288.297 14.4V20L286.497 20.2C275.497 22.4 265.897 28.4 257.697 38.2C245.697 52 238.497 73 238.697 97.2C238.697 119.8 247.897 142.4 260.697 157.6C268.497 166.6 277.697 172.8 286.497 174.2L288.297 174.4V179.8ZM430.897 102.4V99.8C456.097 93.8 474.097 76.2 474.097 52.8C474.097 31.8 459.697 11.8 430.897 5.99999V3.19999C471.097 7.99999 501.297 28.2 501.297 52.8C501.297 77.6 471.097 97.6 430.897 102.4ZM302.497 197.6V195.8H408.497V106.2L408.097 87.4V59.2C400.697 32.6 379.097 6.39999 340.697 1.59999H396.497H410.097V87.4L410.497 106.2V197.6H302.497ZM373.097 97.2C373.097 56.4 342.497 23 302.497 18.2L302.697 16.4C344.097 21.2 374.897 56.2 374.897 97.2C374.897 138.8 343.097 173 302.697 177.8L302.497 176C342.497 171.2 373.097 137.2 373.097 97.2ZM545.097 198H430.897C476.897 192.4 453.097 141.8 444.497 130.8C472.697 166.2 531.297 198 545.097 198ZM739.93 1.59999V68.6C739.93 51.4 714.53 1.59999 670.13 1.59999H739.93ZM570.53 1.59999H640.33C595.93 1.59999 570.53 51.4 570.53 68.6V1.59999ZM714.93 198H599.13C628.93 198 651.33 160.8 656.13 137.6V2.19999H657.93V137.8C663.73 161.2 694.73 198 714.93 198ZM983.33 198V196C1023.13 190.6 1049.13 145 1049.13 100C1049.13 49.8 1025.73 9.99999 983.33 4.19999V2C1036.13 5.79999 1076.33 48.2 1076.33 100C1076.33 152 1035.33 194.2 983.33 198ZM875.93 100C875.93 49.6 913.13 7.6 963.33 1.79999L963.53 3.59999C916.53 9.4 879.93 48 877.73 95.6C902.53 94 943.33 58.4 943.33 38.6V152.8C943.33 123.8 902.73 98.4 877.73 95.8V100C877.73 149 914.93 189.8 963.53 196.2L963.33 198C914.13 192.2 875.93 150.4 875.93 100ZM853.53 87.6V59.4C845.93 32.6 824.53 5.99999 786.13 1.79999H841.93H855.53V87.6L855.93 106.4V198H786.13C825.33 193.2 846.53 166.6 853.93 139.4V106.4L853.53 87.6ZM876.93 3.79998V2H943.53V3.79998H876.93ZM1086.25 2.39999H1142.05H1155.45V88.4L1155.85 107.2V196.2H1300.65V198H1154.05V107.2L1153.65 88.4V60C1146.25 33.4 1124.45 7.19999 1086.25 2.39999ZM1300.85 176.6H1186.65C1216.05 176.6 1242.25 138.8 1243.85 116.6C1243.85 138.6 1280.85 176.6 1300.85 176.6ZM1186.65 1.79999H1300.85C1271.25 1.79999 1245.45 39.4 1243.85 61.4C1243.85 39.6 1206.85 1.79999 1186.65 1.79999ZM1242.85 99.4V79.4H1244.85V99.4H1242.85ZM1317.7 99.4C1317.7 42.8 1364.9 0.59999 1419.5 0.59999C1473.5 0.59999 1518.1 44.6 1518.1 99.2C1518.1 154.2 1474.1 198 1419.7 198C1366.7 198 1317.7 157.6 1317.7 99.4ZM1344.9 99.2V99.4C1344.9 146.4 1372.5 196.2 1421.1 196.2C1424.3 196.2 1427.5 196 1430.7 195.6C1479.5 189.2 1516.3 148.4 1516.3 99.2C1516.3 75 1507.3 52.6 1492.1 35.6C1474.5 15.8 1447.9 2.39999 1421.1 2.39999C1367.5 2.39999 1344.9 52 1344.9 99.2Z" fill="white"/>
</svg>
