<svg width="634" height="144" viewBox="0 0 634 144" fill="none" xmlns="http://www.w3.org/2000/svg">
<path d="M17.6314 2.12377C26.565 2.6571 31.034 6.79044 31.0384 14.5238L31.0643 60.3238C31.0691 68.8571 26.2049 73.1238 16.4715 73.1238H7.87153L7.91053 142.124H0.910535L0.831394 2.12377H17.6314ZM7.83309 5.12377L7.86995 70.3238H16.4699C19.6699 70.3238 21.7362 69.5238 22.6686 67.9238C23.601 66.3238 24.0661 63.5904 24.064 59.7238L24.0387 15.1238C24.0367 11.5238 23.502 9.0571 22.4346 7.72377C21.3671 6.2571 19.4999 5.39044 16.8331 5.12377H7.83309ZM109.776 130.724C109.781 138.99 104.716 143.124 94.583 143.124C84.583 143.124 79.5806 138.857 79.5757 130.324L79.5096 13.3238C79.5049 5.0571 84.5026 0.923773 94.5026 0.923773C104.636 0.923773 109.705 5.19044 109.71 13.7238L109.776 130.724ZM102.71 14.5238C102.708 10.5238 102.24 7.79044 101.306 6.32377C100.371 4.72377 98.3043 3.92377 95.1043 3.92377C91.9043 3.92377 89.638 4.65711 88.3055 6.12378C87.1063 7.45711 86.5078 10.0571 86.5099 13.9238L86.5754 129.724C86.5776 133.59 87.0458 136.324 87.98 137.924C88.9143 139.524 90.9814 140.324 94.1814 140.324C97.3814 140.324 99.581 139.59 100.78 138.124C102.113 136.657 102.778 133.99 102.776 130.124L102.71 14.5238ZM174.78 2.12377C183.713 2.6571 188.182 6.79044 188.187 14.5238L188.212 58.7238C188.215 64.5904 186.017 68.3904 181.618 70.1238C186.019 71.9904 188.221 75.5904 188.224 80.9238L188.259 142.124H181.259L181.225 81.7238C181.223 78.1238 180.688 75.6571 179.621 74.3238C178.553 72.8571 176.686 71.9904 174.019 71.7238H165.019L165.059 142.124H158.059L157.98 2.12377H174.78ZM164.982 5.12377L165.017 68.7238H173.617C176.817 68.7238 178.884 67.9238 179.816 66.3238C180.749 64.7238 181.214 61.9904 181.211 58.1238L181.187 15.1238C181.185 11.5238 180.65 9.0571 179.583 7.72377C178.516 6.2571 176.648 5.39044 173.982 5.12377H164.982ZM236.456 2.12377H268.256L268.258 5.12377H255.858L255.936 142.124H248.936L248.858 5.12377H236.458L236.456 2.12377ZM347.495 2.12377L347.497 5.12377H323.497L323.534 70.1238H343.534L343.536 73.1238H323.536L323.575 142.124H316.575L316.495 2.12377H347.495ZM426.026 130.724C426.031 138.99 420.966 143.124 410.833 143.124C400.833 143.124 395.831 138.857 395.826 130.324L395.76 13.3238C395.755 5.0571 400.753 0.923773 410.753 0.923773C420.886 0.923773 425.955 5.19044 425.96 13.7238L426.026 130.724ZM418.96 14.5238C418.958 10.5238 418.49 7.79044 417.556 6.32377C416.621 4.72377 414.554 3.92377 411.354 3.92377C408.154 3.92377 405.888 4.65711 404.555 6.12378C403.356 7.45711 402.758 10.0571 402.76 13.9238L402.825 129.724C402.828 133.59 403.296 136.324 404.23 137.924C405.164 139.524 407.231 140.324 410.431 140.324C413.631 140.324 415.831 139.59 417.03 138.124C418.363 136.657 419.028 133.99 419.026 130.124L418.96 14.5238ZM474.23 2.12377H481.23L481.307 139.124H500.707L500.709 142.124H474.309L474.23 2.12377ZM555.214 2.12377L555.293 142.124H548.293L548.214 2.12377H555.214ZM633.721 130.724C633.726 138.99 628.662 143.124 618.528 143.124C608.528 143.124 603.526 138.857 603.521 130.324L603.455 13.3238C603.45 5.0571 608.448 0.923773 618.448 0.923773C628.581 0.923773 633.65 5.19044 633.655 13.7238L633.721 130.724ZM626.656 14.5238C626.653 10.5238 626.185 7.79044 625.251 6.32377C624.317 4.72377 622.25 3.92377 619.05 3.92377C615.85 3.92377 613.583 4.65711 612.251 6.12378C611.052 7.45711 610.453 10.0571 610.455 13.9238L610.521 129.724C610.523 133.59 610.991 136.324 611.925 137.924C612.86 139.524 614.927 140.324 618.127 140.324C621.327 140.324 623.526 139.59 624.725 138.124C626.058 136.657 626.723 133.99 626.721 130.124L626.656 14.5238Z" fill="white"/>
</svg>
