<svg width="704" height="50" viewBox="0 0 704 50" fill="none" xmlns="http://www.w3.org/2000/svg">
<path d="M35.3213 49.95L18.1213 13.3C13.7213 6.35 9.22129 3.55 0.521289 0.849998H3.97129C6.12129 0.849998 8.87129 0.899997 11.9213 0.899997H28.9713C25.2213 1.55 22.6213 3.35 21.2713 6.3C20.2713 8.5 20.1213 10.4 20.1213 11.5V11.55V11.6V11.65V11.95V12V12.05V12.1V12.15V12.2V12.25C20.1213 13.95 20.3213 15.75 20.7213 17.7L35.3213 48.9L45.8713 28.45L56.3213 48.9L71.5213 16.5C71.7713 14.85 72.0713 13.15 72.0713 11.7V11.35V11.3V11.2V11.15V11.05V10.95V10.9V10.8C72.0713 9.55 71.6713 7.2 70.0713 5.1C68.6713 3.35 66.4213 1.85 62.8213 0.899997H91.3713C89.1213 0.899997 84.3213 2.55 79.5213 6.55C76.2713 9.35 73.7713 12.7 71.9713 16.6L56.3213 50L45.8713 29.5L35.3213 49.95ZM141.371 50H92.3205C102.071 48.8 107.471 42.15 109.321 35.35V27.1L109.271 22.4V15.35C107.271 8.65 101.971 2 92.3205 0.949997H118.871C120.721 0.949997 122.371 0.899997 123.571 0.899997H141.371V17.65C141.371 13.85 136.521 3.8 127.771 1.4H109.721V22.4L109.771 27.1V49.55H127.121C134.421 47.45 141.371 38.85 141.371 33.2V50ZM114.821 24.45C120.921 24.45 131.621 15.2 131.621 10.15V38.7C131.621 31.4 120.921 24.85 114.821 24.45ZM166.603 50H143.003C152.753 48.8 158.153 42.15 160.003 35.35V27.1L159.953 22.4V15.35C157.953 8.65 152.653 2 143.003 0.949997H167.153C178.753 1.2 184.553 4.9 184.553 11.95C184.553 18.2 180.453 21.45 174.703 23.05C183.153 24.25 187.353 28.5 187.353 35.75C187.353 46.8 175.953 50 166.603 50ZM160.403 1.3V22.4L160.453 27.1V49.55H166.653C176.903 49.4 180.153 42.4 180.553 35.75V34.85C180.553 30.8 179.103 27.85 177.153 26C175.203 24.15 173.053 23.4 172.403 23.15C173.603 22.6 177.753 19.3 177.753 11.95C177.753 5.95 174.903 1.85 167.103 1.45H166.453H166.403H166.353H166.303H166.253H166.203H166.153H166.103H166.003H165.953H165.903H165.853C165.403 1.45 165.003 1.45 164.553 1.4C163.153 1.35 161.453 1.35 160.403 1.3ZM199.953 49.35V49.8C185.153 47 187.853 24.6 205.853 21.6C221.053 19.2 224.053 4.05 212.253 1.85V1.35C216.403 2 219.803 4.65 219.953 9C220.053 11.35 219.203 13.7 217.403 15.95C215.053 18.95 211.303 21.2 205.903 22.05C200.703 23 197.053 25.25 194.503 28.45C191.953 31.5 190.703 35.3 190.853 38.75C191.203 44.4 194.503 48.2 199.953 49.35ZM222.603 0.949997H251.153C243.703 0.949997 237.253 10.35 236.853 15.85C236.853 10.4 227.603 0.949997 222.603 0.949997ZM251.153 44.65H222.603C230.003 44.65 236.453 35.2 236.853 29.65C236.853 35.15 246.153 44.65 251.153 44.65ZM189.703 0.899997H207.153C198.803 0.899997 189.703 11.3 189.703 17.65V0.899997ZM205.303 49.55H251.153V50H205.303V49.55ZM237.103 25.35H236.653V20.35H237.103V25.35ZM288.684 50H259.684C267.934 50 273.984 38.55 274.184 33.2C274.584 38.6 282.934 50 288.684 50ZM316.934 10.15V38.7C316.934 31.4 306.234 24.85 300.134 24.45C306.234 24.45 316.934 15.2 316.934 10.15ZM326.684 50H309.234C317.634 50 326.684 39.6 326.684 33.2V50ZM252.584 0.899997H270.034C258.884 0.899997 252.584 13.35 252.584 17.65V0.899997ZM294.884 0.899997V17.65C294.884 13.35 288.584 0.899997 277.484 0.899997H294.884ZM309.234 0.899997H326.684V17.65C326.684 13.35 320.434 0.899997 309.234 0.899997ZM273.934 6.1H274.434V28.7H273.934V6.1ZM294.434 28.1H294.884V50H294.434V28.1ZM371.473 49.95V49.5C377.673 49.5 384.723 47.25 389.773 42.2C393.623 38.35 396.223 33 396.223 25.4C396.223 17.55 393.773 12.1 389.973 8.3C384.923 3.25 377.723 1.35 371.473 1.35V0.899997C382.573 0.899997 396.723 6.8 396.723 25.4C396.723 42.85 382.573 49.95 371.473 49.95ZM348.773 0.899997H362.723H366.123V22.35L366.223 27.05V49.95H348.773C358.573 48.75 363.873 42.1 365.723 35.3V27.05C365.673 26.1 365.673 25.35 365.673 24.7C365.623 23.55 365.623 22.4 365.623 22.35V15.3C363.773 8.65 358.373 2.1 348.773 0.899997ZM401.673 24.45C407.873 24.45 418.523 15.2 418.523 10.15V38.7C418.523 31.3 407.873 24.85 401.673 24.45ZM428.223 50H410.823C419.173 50 428.223 39.6 428.223 33.2V50ZM428.223 0.899997V17.65C428.223 13.35 421.973 0.899997 410.823 0.899997H428.223ZM429.916 0.899997H441.316C445.316 0.949997 449.466 0.949997 452.866 0.949997H458.416C450.766 2.2 448.266 8.45 450.116 17.65C444.516 7.7 440.366 4 429.916 0.899997ZM512.566 10.15V38.7C512.566 31.4 502.016 24.85 495.766 24.45C501.966 24.45 512.566 15.2 512.566 10.15ZM471.216 0.899997H499.766C496.166 0.899997 485.316 5.25 479.716 17.65C480.516 12.9 482.816 3.9 471.216 0.899997ZM522.316 50H504.916C513.266 50 522.316 39.6 522.316 33.2V50ZM504.916 0.899997H522.316V17.65C522.316 13.35 516.066 0.899997 504.916 0.899997ZM455.066 28.65H455.566C458.616 35.3 463.166 45.1 464.766 48.7C466.216 45.15 470.916 35.35 473.966 28.65H474.516C470.916 36.25 465.366 48.2 464.766 50C463.966 47.85 458.516 36.25 455.066 28.65ZM490.266 27.1L490.216 22.4V17.65H490.716V22.4V27.1V50H490.266V27.1ZM576.108 1.55V0.999999C589.258 1.95 599.308 12.55 599.308 25.5C599.308 38.5 589.058 49.05 576.108 50V49.5C585.958 48.15 592.508 36.75 592.508 25.5C592.508 12.95 586.708 3 576.108 1.55ZM559.808 45.65C553.408 41.25 549.208 33.8 549.208 25.5C549.208 12.95 558.508 2.4 571.108 0.949997L571.158 1.4C558.958 2.85 549.658 13.15 549.658 25.5C549.658 33.9 553.708 41 560.558 45.65C568.658 44.85 577.058 36 577.058 30.4V45.7H560.658C563.858 47.65 567.308 49 571.158 49.55L571.108 50C566.908 49.45 563.058 47.95 559.808 45.7H559.608C559.658 45.7 559.658 45.65 559.808 45.65ZM524.008 0.949997H538.008H541.358V20.5L541.458 24.8V44.85H554.558V45.35H541.008V24.8L540.908 20.5V14.05C539.058 7.95 533.608 2 524.008 0.949997ZM610.221 27.1V50H594.321C604.071 48.8 607.871 42.15 609.721 35.35V26.85C609.721 26.7 609.671 26.55 609.671 26.2V25.8C609.671 25.05 609.621 24.35 609.621 23.6V15.35C607.721 8.65 603.921 2 594.321 0.949997H610.121C611.771 0.999999 613.871 1.1 615.221 1.15C626.671 1.55 635.771 7.1 635.771 13.75C635.771 20.65 626.221 26.3 614.371 26.45L610.171 26.25L610.221 27.1ZM610.121 1.5V22.4L610.171 25.8L614.471 25.9C622.621 25.75 628.971 20.65 628.971 13.75C628.971 7.8 624.371 2.2 615.371 1.65C614.421 1.5 612.771 1.5 611.421 1.5H610.121ZM692.358 13.7C692.358 19.9 684.808 24.9 674.708 26.1V25.45C681.058 24 685.558 19.55 685.558 13.7C685.558 8.45 681.908 3.45 674.708 2V1.3C684.808 2.5 692.358 7.6 692.358 13.7ZM647.108 38.7V10.1C647.108 15.2 657.808 24.4 663.958 24.4C657.758 24.8 647.108 31.3 647.108 38.7ZM703.308 50H674.708C686.308 48.6 680.158 36 678.158 33.2C685.158 42.05 699.758 50 703.308 50ZM637.408 49.95V33.2C637.408 39.6 646.458 49.95 654.808 49.95H637.408ZM637.408 0.849998H654.808C643.708 0.849998 637.408 13.35 637.408 17.65V0.849998ZM669.058 22.35V0.899997H669.558V22.35L669.608 27.05V49.95H669.108V27.05L669.058 22.35Z" fill="black"/>
</svg>
