<svg width="1291" height="47" viewBox="0 0 1291 47" fill="none" xmlns="http://www.w3.org/2000/svg">
<path d="M12.6875 40.2197L4.16699 4.45312H5.29004L12.6143 36.1914C12.6956 36.5495 12.777 36.9157 12.8584 37.29C12.9561 37.6481 13.07 38.0957 13.2002 38.6328H13.2734C13.3874 38.0957 13.485 37.6481 13.5664 37.29C13.6478 36.9157 13.7373 36.5495 13.835 36.1914L21.7939 4.45312H23.0879L31.0469 36.167C31.1608 36.5413 31.2585 36.9157 31.3398 37.29C31.4212 37.6481 31.527 38.0957 31.6572 38.6328H31.7549C31.8688 38.0957 31.9665 37.6481 32.0479 37.29C32.1292 36.9157 32.2188 36.5332 32.3164 36.1426L39.5918 4.45312H40.6416L32.1211 40.2197H31.0957L23.0879 8.60352C22.9902 8.21289 22.8682 7.72461 22.7217 7.13867C22.5915 6.55273 22.4857 6.01562 22.4043 5.52734H22.3311C22.2334 6.01562 22.1195 6.55273 21.9893 7.13867C21.859 7.72461 21.7451 8.21289 21.6475 8.60352L13.7129 40.2197H12.6875ZM46.3301 40V4.45312H64.7871V5.40527H47.3555V21.1279H62.3213V22.1045H47.3555V39.0479H65.0312V40H46.3301ZM70.1094 40V4.45312H79.6064C82.6989 4.45312 85.1077 5.12044 86.833 6.45508C88.5745 7.77344 89.4453 9.98698 89.4453 13.0957C89.4453 15.4883 88.8757 17.4007 87.7363 18.833C86.597 20.249 85.0671 21.0791 83.1465 21.3232V21.3965C85.2949 21.6243 87.0446 22.5033 88.3955 24.0332C89.7627 25.5632 90.4463 27.7035 90.4463 30.4541C90.4463 33.4652 89.5999 35.8089 87.9072 37.4854C86.2145 39.1618 83.7161 40 80.4121 40H70.1094ZM71.1348 39.0479H80.4854C83.5127 39.0479 85.7507 38.291 87.1992 36.7773C88.6641 35.2637 89.3965 33.1559 89.3965 30.4541C89.3965 27.8337 88.6722 25.7585 87.2236 24.2285C85.7751 22.6823 83.529 21.9092 80.4854 21.9092H71.1348V39.0479ZM71.1348 20.957H80.0215C83.0488 20.957 85.2054 20.249 86.4912 18.833C87.777 17.417 88.4199 15.5046 88.4199 13.0957C88.4199 10.3613 87.6712 8.40007 86.1738 7.21191C84.6764 6.00749 82.4873 5.40527 79.6064 5.40527H71.1348V20.957ZM93.8643 31.1133V29.7705H94.9141V30.918C94.9141 33.6686 95.793 35.8089 97.5508 37.3389C99.3249 38.8525 101.75 39.6094 104.826 39.6094C107.854 39.6094 110.222 38.8525 111.931 37.3389C113.64 35.8089 114.494 33.8639 114.494 31.5039C114.494 29.209 113.827 27.3779 112.492 26.0107C111.174 24.6273 108.586 23.3089 104.729 22.0557C100.887 20.8024 98.21 19.484 96.6963 18.1006C95.1826 16.7008 94.4258 14.7396 94.4258 12.2168C94.4258 9.66146 95.3047 7.63509 97.0625 6.1377C98.8366 4.62402 101.359 3.86719 104.631 3.86719C108.049 3.86719 110.604 4.79492 112.297 6.65039C113.99 8.48958 114.836 10.5729 114.836 12.9004V14.0723H113.811V12.9248C113.811 10.7926 113.078 8.91276 111.613 7.28516C110.165 5.65755 107.837 4.84375 104.631 4.84375C101.538 4.84375 99.2354 5.50293 97.7217 6.82129C96.2243 8.12337 95.4756 9.93815 95.4756 12.2656C95.4756 14.4141 96.1755 16.1312 97.5752 17.417C98.9912 18.6865 101.604 19.9398 105.412 21.1768C109.237 22.4137 111.874 23.7891 113.322 25.3027C114.787 26.8001 115.52 28.859 115.52 31.4795C115.52 34.1813 114.551 36.3786 112.614 38.0713C110.694 39.7477 108.081 40.5859 104.777 40.5859C101.473 40.5859 98.8285 39.7314 96.8428 38.0225C94.8571 36.3135 93.8643 34.0104 93.8643 31.1133ZM120.744 40V4.45312H121.77V40H120.744ZM126.091 5.40527V4.45312H150.236V5.40527H138.688V40H137.663V5.40527H126.091ZM154.484 40V4.45312H172.941V5.40527H155.51V21.1279H170.476V22.1045H155.51V39.0479H173.186V40H154.484ZM187.785 40V4.45312H195.939C200.367 4.45312 203.858 6.04004 206.413 9.21387C208.985 12.3714 210.271 16.5299 210.271 21.6895V22.7637C210.271 28.2975 208.895 32.5537 206.145 35.5322C203.41 38.5107 200.008 40 195.939 40H187.785ZM188.811 39.0479H195.939C199.732 39.0479 202.889 37.6318 205.412 34.7998C207.951 31.9678 209.221 27.9557 209.221 22.7637V21.7383C209.221 16.8392 208.041 12.8923 205.681 9.89746C203.337 6.90267 200.09 5.40527 195.939 5.40527H188.811V39.0479ZM216.594 40V4.45312H235.051V5.40527H217.619V21.1279H232.585V22.1045H217.619V39.0479H235.295V40H216.594ZM236.516 4.45312H237.639L248.674 36.3867C248.82 36.7611 248.983 37.2005 249.162 37.7051C249.341 38.2096 249.512 38.7223 249.675 39.2432H249.797C249.96 38.7223 250.122 38.2178 250.285 37.7295C250.464 37.2249 250.635 36.7611 250.798 36.3379L261.833 4.45312H262.883L250.334 40.2197H249.064L236.516 4.45312ZM266.74 40V4.45312H285.197V5.40527H267.766V21.1279H282.731V22.1045H267.766V39.0479H285.441V40H266.74ZM290.52 40V4.45312H291.545V39.0479H308.22V40H290.52ZM311.345 22.6416V21.5674C311.345 15.4476 312.541 10.9717 314.934 8.13965C317.342 5.29134 320.492 3.86719 324.382 3.86719C328.288 3.86719 331.438 5.29134 333.83 8.13965C336.223 10.9717 337.419 15.4476 337.419 21.5674V22.6416C337.419 28.9567 336.223 33.5303 333.83 36.3623C331.438 39.1781 328.288 40.5859 324.382 40.5859C320.492 40.5859 317.342 39.1781 314.934 36.3623C312.541 33.5303 311.345 28.9567 311.345 22.6416ZM312.395 22.9102C312.395 28.7533 313.485 33.0013 315.666 35.6543C317.847 38.291 320.744 39.6094 324.357 39.6094C328.02 39.6094 330.933 38.291 333.098 35.6543C335.279 33.0176 336.369 28.7614 336.369 22.8857V21.2988C336.369 15.651 335.279 11.5007 333.098 8.84766C330.917 6.17839 328.011 4.84375 324.382 4.84375C320.752 4.84375 317.847 6.17839 315.666 8.84766C313.485 11.5007 312.395 15.651 312.395 21.2988V22.9102ZM343.742 40V4.45312H353.117C356.568 4.45312 359.147 5.38086 360.856 7.23633C362.565 9.0918 363.42 11.5088 363.42 14.4873C363.42 17.4821 362.565 19.9154 360.856 21.7871C359.147 23.6426 356.568 24.5703 353.117 24.5703H344.768V40H343.742ZM344.768 23.6182H352.946C356.299 23.6182 358.708 22.7637 360.173 21.0547C361.638 19.3457 362.37 17.1647 362.37 14.5117C362.37 11.8587 361.638 9.67773 360.173 7.96875C358.708 6.25977 356.307 5.40527 352.971 5.40527H344.768V23.6182ZM368.498 40V4.45312H386.955V5.40527H369.523V21.1279H384.489V22.1045H369.523V39.0479H387.199V40H368.498ZM392.277 40V4.45312H401.555C404.859 4.45312 407.357 5.34831 409.05 7.13867C410.759 8.91276 411.613 11.2646 411.613 14.1943C411.613 17.1566 410.783 19.541 409.123 21.3477C407.479 23.138 404.956 24.0332 401.555 24.0332H393.303V40H392.277ZM393.303 23.0811H401.555C404.712 23.0811 406.999 22.2673 408.415 20.6396C409.847 18.9958 410.563 16.8473 410.563 14.1943C410.563 11.5576 409.831 9.43359 408.366 7.82227C406.901 6.21094 404.631 5.40527 401.555 5.40527H393.303V23.0811ZM411.882 40L403.264 23.4473H404.484L413.176 40H411.882ZM437.102 40.2197L428.581 4.45312H429.704L437.028 36.1914C437.11 36.5495 437.191 36.9157 437.272 37.29C437.37 37.6481 437.484 38.0957 437.614 38.6328H437.688C437.801 38.0957 437.899 37.6481 437.98 37.29C438.062 36.9157 438.151 36.5495 438.249 36.1914L446.208 4.45312H447.502L455.461 36.167C455.575 36.5413 455.673 36.9157 455.754 37.29C455.835 37.6481 455.941 38.0957 456.071 38.6328H456.169C456.283 38.0957 456.381 37.6481 456.462 37.29C456.543 36.9157 456.633 36.5332 456.73 36.1426L464.006 4.45312H465.056L456.535 40.2197H455.51L447.502 8.60352C447.404 8.21289 447.282 7.72461 447.136 7.13867C447.006 6.55273 446.9 6.01562 446.818 5.52734H446.745C446.647 6.01562 446.534 6.55273 446.403 7.13867C446.273 7.72461 446.159 8.21289 446.062 8.60352L438.127 40.2197H437.102ZM470.744 40V4.45312H489.201V5.40527H471.77V21.1279H486.735V22.1045H471.77V39.0479H489.445V40H470.744ZM494.523 40V4.45312H504.021C507.113 4.45312 509.522 5.12044 511.247 6.45508C512.989 7.77344 513.859 9.98698 513.859 13.0957C513.859 15.4883 513.29 17.4007 512.15 18.833C511.011 20.249 509.481 21.0791 507.561 21.3232V21.3965C509.709 21.6243 511.459 22.5033 512.81 24.0332C514.177 25.5632 514.86 27.7035 514.86 30.4541C514.86 33.4652 514.014 35.8089 512.321 37.4854C510.629 39.1618 508.13 40 504.826 40H494.523ZM495.549 39.0479H504.899C507.927 39.0479 510.165 38.291 511.613 36.7773C513.078 35.2637 513.811 33.1559 513.811 30.4541C513.811 27.8337 513.086 25.7585 511.638 24.2285C510.189 22.6823 507.943 21.9092 504.899 21.9092H495.549V39.0479ZM495.549 20.957H504.436C507.463 20.957 509.619 20.249 510.905 18.833C512.191 17.417 512.834 15.5046 512.834 13.0957C512.834 10.3613 512.085 8.40007 510.588 7.21191C509.09 6.00749 506.901 5.40527 504.021 5.40527H495.549V20.957ZM518.278 31.1133V29.7705H519.328V30.918C519.328 33.6686 520.207 35.8089 521.965 37.3389C523.739 38.8525 526.164 39.6094 529.24 39.6094C532.268 39.6094 534.636 38.8525 536.345 37.3389C538.054 35.8089 538.908 33.8639 538.908 31.5039C538.908 29.209 538.241 27.3779 536.906 26.0107C535.588 24.6273 533 23.3089 529.143 22.0557C525.301 20.8024 522.624 19.484 521.11 18.1006C519.597 16.7008 518.84 14.7396 518.84 12.2168C518.84 9.66146 519.719 7.63509 521.477 6.1377C523.251 4.62402 525.773 3.86719 529.045 3.86719C532.463 3.86719 535.018 4.79492 536.711 6.65039C538.404 8.48958 539.25 10.5729 539.25 12.9004V14.0723H538.225V12.9248C538.225 10.7926 537.492 8.91276 536.027 7.28516C534.579 5.65755 532.251 4.84375 529.045 4.84375C525.952 4.84375 523.649 5.50293 522.136 6.82129C520.638 8.12337 519.89 9.93815 519.89 12.2656C519.89 14.4141 520.59 16.1312 521.989 17.417C523.405 18.6865 526.018 19.9398 529.826 21.1768C533.651 22.4137 536.288 23.7891 537.736 25.3027C539.201 26.8001 539.934 28.859 539.934 31.4795C539.934 34.1813 538.965 36.3786 537.028 38.0713C535.108 39.7477 532.495 40.5859 529.191 40.5859C525.887 40.5859 523.243 39.7314 521.257 38.0225C519.271 36.3135 518.278 34.0104 518.278 31.1133ZM545.158 40V4.45312H546.184V40H545.158ZM550.505 5.40527V4.45312H574.65V5.40527H563.103V40H562.077V5.40527H550.505ZM578.898 40V4.45312H597.355V5.40527H579.924V21.1279H594.89V22.1045H579.924V39.0479H597.6V40H578.898ZM612.199 40V4.45312H620.354C624.781 4.45312 628.272 6.04004 630.827 9.21387C633.399 12.3714 634.685 16.5299 634.685 21.6895V22.7637C634.685 28.2975 633.309 32.5537 630.559 35.5322C627.824 38.5107 624.423 40 620.354 40H612.199ZM613.225 39.0479H620.354C624.146 39.0479 627.303 37.6318 629.826 34.7998C632.365 31.9678 633.635 27.9557 633.635 22.7637V21.7383C633.635 16.8392 632.455 12.8923 630.095 9.89746C627.751 6.90267 624.504 5.40527 620.354 5.40527H613.225V39.0479ZM641.008 40V4.45312H659.465V5.40527H642.033V21.1279H656.999V22.1045H642.033V39.0479H659.709V40H641.008ZM660.93 4.45312H662.053L673.088 36.3867C673.234 36.7611 673.397 37.2005 673.576 37.7051C673.755 38.2096 673.926 38.7223 674.089 39.2432H674.211C674.374 38.7223 674.536 38.2178 674.699 37.7295C674.878 37.2249 675.049 36.7611 675.212 36.3379L686.247 4.45312H687.297L674.748 40.2197H673.479L660.93 4.45312ZM691.154 40V4.45312H709.611V5.40527H692.18V21.1279H707.146V22.1045H692.18V39.0479H709.855V40H691.154ZM714.934 40V4.45312H715.959V39.0479H732.634V40H714.934ZM735.759 22.6416V21.5674C735.759 15.4476 736.955 10.9717 739.348 8.13965C741.757 5.29134 744.906 3.86719 748.796 3.86719C752.702 3.86719 755.852 5.29134 758.244 8.13965C760.637 10.9717 761.833 15.4476 761.833 21.5674V22.6416C761.833 28.9567 760.637 33.5303 758.244 36.3623C755.852 39.1781 752.702 40.5859 748.796 40.5859C744.906 40.5859 741.757 39.1781 739.348 36.3623C736.955 33.5303 735.759 28.9567 735.759 22.6416ZM736.809 22.9102C736.809 28.7533 737.899 33.0013 740.08 35.6543C742.261 38.291 745.158 39.6094 748.771 39.6094C752.434 39.6094 755.347 38.291 757.512 35.6543C759.693 33.0176 760.783 28.7614 760.783 22.8857V21.2988C760.783 15.651 759.693 11.5007 757.512 8.84766C755.331 6.17839 752.425 4.84375 748.796 4.84375C745.166 4.84375 742.261 6.17839 740.08 8.84766C737.899 11.5007 736.809 15.651 736.809 21.2988V22.9102ZM768.156 40V4.45312H777.531C780.982 4.45312 783.562 5.38086 785.271 7.23633C786.979 9.0918 787.834 11.5088 787.834 14.4873C787.834 17.4821 786.979 19.9154 785.271 21.7871C783.562 23.6426 780.982 24.5703 777.531 24.5703H769.182V40H768.156ZM769.182 23.6182H777.36C780.713 23.6182 783.122 22.7637 784.587 21.0547C786.052 19.3457 786.784 17.1647 786.784 14.5117C786.784 11.8587 786.052 9.67773 784.587 7.96875C783.122 6.25977 780.721 5.40527 777.385 5.40527H769.182V23.6182ZM792.912 40V4.45312H811.369V5.40527H793.938V21.1279H808.903V22.1045H793.938V39.0479H811.613V40H792.912ZM816.691 40V4.45312H825.969C829.273 4.45312 831.771 5.34831 833.464 7.13867C835.173 8.91276 836.027 11.2646 836.027 14.1943C836.027 17.1566 835.197 19.541 833.537 21.3477C831.893 23.138 829.37 24.0332 825.969 24.0332H817.717V40H816.691ZM817.717 23.0811H825.969C829.126 23.0811 831.413 22.2673 832.829 20.6396C834.261 18.9958 834.978 16.8473 834.978 14.1943C834.978 11.5576 834.245 9.43359 832.78 7.82227C831.315 6.21094 829.045 5.40527 825.969 5.40527H817.717V23.0811ZM836.296 40L827.678 23.4473H828.898L837.59 40H836.296ZM856.95 40.1709L848.625 4.45312H853.605L859.538 30.918C859.636 31.3249 859.709 31.7236 859.758 32.1143C859.823 32.4886 859.888 32.9362 859.953 33.457H860.1C860.165 32.9362 860.23 32.4886 860.295 32.1143C860.376 31.7236 860.466 31.3249 860.563 30.918L867.009 4.45312H872.233L878.85 30.918C878.947 31.3249 879.021 31.7236 879.069 32.1143C879.134 32.4886 879.208 32.9443 879.289 33.4814H879.436C879.484 32.9281 879.541 32.4642 879.606 32.0898C879.672 31.6992 879.745 31.3086 879.826 30.918L885.637 4.45312H890.275L881.975 40.1709H876.75L870.061 13.3887C869.963 13.0306 869.865 12.6237 869.768 12.168C869.686 11.7122 869.613 11.2321 869.548 10.7275H869.401C869.336 11.2321 869.255 11.7122 869.157 12.168C869.076 12.6074 868.994 13.0143 868.913 13.3887L862.199 40.1709H856.95ZM893.986 40V4.45312H914.689V8.5791H898.942V19.7607H912.419V23.6914H898.942V35.9229H914.982V40H893.986ZM919.279 40V4.45312H930.705C934.042 4.45312 936.613 5.20182 938.42 6.69922C940.243 8.19661 941.154 10.4834 941.154 13.5596C941.154 15.5941 940.707 17.2705 939.812 18.5889C938.933 19.9072 937.818 20.8024 936.467 21.2744V21.3721C938.143 21.8278 939.51 22.7962 940.568 24.2773C941.643 25.7422 942.18 27.679 942.18 30.0879C942.18 33.2292 941.203 35.6706 939.25 37.4121C937.313 39.1374 934.701 40 931.413 40H919.279ZM924.211 36.167H930.9C933.049 36.167 934.628 35.6055 935.637 34.4824C936.646 33.3431 937.15 31.7887 937.15 29.8193C937.15 27.8499 936.646 26.2874 935.637 25.1318C934.628 23.96 933.049 23.374 930.9 23.374H924.211V36.167ZM924.211 19.8584H930.217C932.349 19.8584 933.887 19.3457 934.831 18.3203C935.775 17.2949 936.247 15.8545 936.247 13.999C936.247 12.1436 935.775 10.7438 934.831 9.7998C933.887 8.83952 932.349 8.35124 930.217 8.33496H924.211V19.8584ZM945.842 30.4053V29.1113H950.725V30.2344C950.725 32.3991 951.351 34.0186 952.604 35.0928C953.858 36.167 955.599 36.7041 957.829 36.7041C960.059 36.7041 961.768 36.1751 962.956 35.1172C964.144 34.0592 964.738 32.6595 964.738 30.918C964.738 29.3066 964.185 28.029 963.078 27.085C961.971 26.1247 959.815 25.1074 956.608 24.0332C953.125 22.8776 950.562 21.5348 948.918 20.0049C947.274 18.4749 946.452 16.2858 946.452 13.4375C946.452 10.6055 947.445 8.31055 949.431 6.55273C951.433 4.77865 954.175 3.8916 957.658 3.8916C961.076 3.8916 963.811 4.77051 965.861 6.52832C967.928 8.28613 968.962 10.695 968.962 13.7549V14.7314H964.128V13.9014C964.128 12.0296 963.583 10.5485 962.492 9.45801C961.402 8.36751 959.799 7.82227 957.683 7.82227C955.485 7.82227 953.882 8.30241 952.873 9.2627C951.864 10.2067 951.359 11.5007 951.359 13.1445C951.359 14.6745 951.905 15.887 952.995 16.7822C954.102 17.6774 956.275 18.654 959.514 19.7119C962.98 20.8512 965.536 22.251 967.18 23.9111C968.824 25.5713 969.646 27.8174 969.646 30.6494C969.646 33.6605 968.579 36.0693 966.447 37.876C964.315 39.6826 961.451 40.5859 957.854 40.5859C954.273 40.5859 951.376 39.7152 949.162 37.9736C946.949 36.2158 945.842 33.693 945.842 30.4053ZM974.797 40V4.45312H979.851V40H974.797ZM983.439 8.5791V4.45312H1009.15V8.5791H998.845V40H993.767V8.5791H983.439ZM1012.83 40V4.45312H1033.54V8.5791H1017.79V19.7607H1031.27V23.6914H1017.79V35.9229H1033.83V40H1012.83Z" fill="white"/>
<path d="M1044.13 40L1050.41 4.45312H1060.47C1064.93 4.45312 1068.23 5.93424 1070.38 8.89648C1072.54 11.8587 1073.16 15.9603 1072.23 21.2012L1071.87 23.2275C1070.96 28.4521 1068.91 32.5537 1065.74 35.5322C1062.57 38.5107 1058.72 40 1054.19 40H1044.13ZM1049.8 36.0938H1054.68C1057.77 36.0938 1060.38 35.0033 1062.49 32.8223C1064.61 30.6413 1066.02 27.5407 1066.72 23.5205L1067.18 20.957C1067.9 16.9043 1067.55 13.8037 1066.15 11.6553C1064.75 9.50684 1062.56 8.43262 1059.56 8.43262H1054.68L1049.8 36.0938ZM1074.36 40L1080.63 4.45312H1101.33L1100.6 8.5791H1084.83L1082.85 19.7607H1096.35L1095.67 23.6914H1082.17L1080.02 35.9229H1096.06L1095.35 40H1074.36ZM1102.82 4.45312H1107.9L1111.64 31.4307C1111.7 31.8864 1111.76 32.334 1111.81 32.7734C1111.86 33.2129 1111.9 33.6117 1111.93 33.9697H1112.08C1112.22 33.6117 1112.4 33.1966 1112.61 32.7246C1112.84 32.2526 1113.05 31.8213 1113.25 31.4307L1126.6 4.45312H1131.71L1113.71 40.1953H1108.22L1102.82 4.45312ZM1128.36 40L1134.64 4.45312H1155.34L1154.61 8.5791H1138.83L1136.86 19.7607H1150.36L1149.67 23.6914H1136.17L1134.03 35.9229H1150.07L1149.36 40H1128.36ZM1153.65 40L1159.93 4.45312H1164.96L1159.39 35.874H1174.36L1173.62 40H1153.65ZM1178.97 23.252L1179.34 21.2012C1180.38 15.293 1182.44 10.931 1185.51 8.11523C1188.61 5.2832 1192.2 3.86719 1196.28 3.86719C1200.4 3.86719 1203.5 5.2832 1205.58 8.11523C1207.68 10.931 1208.2 15.293 1207.15 21.2012L1206.78 23.252C1205.75 29.1602 1203.69 33.5303 1200.6 36.3623C1197.53 39.1781 1193.93 40.5859 1189.81 40.5859C1185.71 40.5859 1182.62 39.1781 1180.53 36.3623C1178.47 33.5303 1177.95 29.1602 1178.97 23.252ZM1184.03 23.8623C1183.26 28.2894 1183.49 31.5283 1184.71 33.5791C1185.93 35.6136 1187.87 36.6309 1190.52 36.6309C1193.19 36.6309 1195.49 35.6136 1197.43 33.5791C1199.37 31.5283 1200.72 28.2894 1201.51 23.8623L1202.09 20.6152C1202.87 16.1882 1202.65 12.9574 1201.43 10.9229C1200.21 8.87207 1198.27 7.84668 1195.6 7.84668C1192.93 7.84668 1190.63 8.87207 1188.69 10.9229C1186.75 12.9574 1185.39 16.1882 1184.61 20.6152L1184.03 23.8623ZM1209.27 40L1215.54 4.45312H1227.12C1230.73 4.45312 1233.29 5.46224 1234.81 7.48047C1236.34 9.4987 1236.81 12.1598 1236.22 15.4639C1235.65 18.7516 1234.25 21.4209 1232.02 23.4717C1229.81 25.5062 1226.86 26.5234 1223.19 26.5234H1216.69L1214.3 40H1209.27ZM1217.38 22.6416H1223.36C1225.8 22.6416 1227.62 21.958 1228.83 20.5908C1230.03 19.2074 1230.81 17.5146 1231.17 15.5127C1231.53 13.5107 1231.34 11.8343 1230.61 10.4834C1229.88 9.13249 1228.29 8.44889 1225.85 8.43262H1219.87L1217.38 22.6416ZM1236.22 40L1242.5 4.45312H1263.2L1262.47 8.5791H1246.7L1244.72 19.7607H1258.22L1257.54 23.6914H1244.04L1241.89 35.9229H1257.93L1257.22 40H1236.22ZM1261.52 40L1267.79 4.45312H1279.04C1282.56 4.45312 1285.09 5.41341 1286.64 7.33398C1288.18 9.25456 1288.68 11.8099 1288.13 15C1287.56 18.1901 1286.14 20.778 1283.88 22.7637C1281.62 24.7493 1278.74 25.7422 1275.26 25.7422H1269.06L1266.54 40H1261.52ZM1269.72 21.9336H1275.48C1277.84 21.9336 1279.61 21.2988 1280.78 20.0293C1281.95 18.7435 1282.71 17.1077 1283.05 15.1221C1283.41 13.1364 1283.22 11.5251 1282.49 10.2881C1281.77 9.03483 1280.23 8.40007 1277.87 8.38379H1272.11L1269.72 21.9336ZM1279.75 40L1274.5 23.7646L1279.36 22.9834L1285.15 40H1279.75Z" fill="#00FF00"/>
</svg>
