<svg width="1916" height="60" viewBox="0 0 1916 60" fill="none" xmlns="http://www.w3.org/2000/svg">
<path d="M13.4766 59.3164L0.227051 1.41406H3.58887L14.7026 50.3779C14.8081 50.9316 14.9136 51.5381 15.019 52.1973C15.1245 52.8564 15.2432 53.6343 15.375 54.5308H15.5332C15.6914 53.6343 15.8364 52.8564 15.9683 52.1973C16.1001 51.5381 16.2319 50.9316 16.3638 50.3779L28.1895 1.41406H32.2236L44.168 50.4175C44.2998 50.9448 44.4185 51.5381 44.5239 52.1973C44.6558 52.8564 44.7876 53.6475 44.9194 54.5703H45.1172C45.2227 53.6211 45.3281 52.8301 45.4336 52.1973C45.5654 51.5381 45.6841 50.9316 45.7896 50.3779L56.8638 1.41406H59.9487L46.6992 59.3164H43.0605L31.0767 9.79883C30.9448 9.29785 30.7866 8.63867 30.6021 7.82129C30.4438 6.97754 30.2988 6.12061 30.167 5.25049H30.0088C29.877 6.12061 29.7188 6.96436 29.5342 7.78174C29.376 8.59912 29.2441 9.27148 29.1387 9.79883L17.1152 59.3164H13.4766ZM66.9492 59V1.41406H95.8608V4.38037H70.2715V27.7549H91.9849V30.7212H70.2715V56.0337H96.2563V59H66.9492ZM103.336 59V1.41406H118.247C123.072 1.41406 126.829 2.54785 129.519 4.81543C132.234 7.05664 133.592 10.6689 133.592 15.6523C133.592 19.2646 132.801 22.2178 131.219 24.5117C129.664 26.7793 127.62 28.1768 125.089 28.7041V28.8228C128.068 29.3765 130.494 30.9058 132.366 33.4106C134.238 35.8892 135.174 39.2378 135.174 43.4565C135.174 48.3345 133.803 52.1445 131.061 54.8867C128.345 57.6289 124.496 59 119.512 59H103.336ZM106.658 56.0337H119.591C123.784 56.0337 126.882 54.9131 128.886 52.6719C130.89 50.4307 131.892 47.3325 131.892 43.3774C131.892 39.396 130.89 36.2451 128.886 33.9248C126.882 31.6045 123.784 30.4443 119.591 30.4443H106.658V56.0337ZM106.658 27.5176H118.563C122.755 27.5176 125.761 26.4761 127.581 24.3931C129.4 22.2837 130.31 19.3965 130.31 15.7314C130.31 11.8291 129.321 8.96826 127.343 7.14893C125.366 5.30322 122.333 4.38037 118.247 4.38037H106.658V27.5176ZM139.564 45.1177V42.1909H140.237V44.6826C140.237 49.2705 141.674 52.8301 144.548 55.3613C147.448 57.8926 151.377 59.1582 156.334 59.1582C161.159 59.1582 164.969 57.9058 167.764 55.4009C170.585 52.8696 171.996 49.6001 171.996 45.5923C171.996 41.5317 170.902 38.3413 168.713 36.021C166.525 33.6743 162.438 31.4331 156.453 29.2974C150.441 27.188 146.235 25.0127 143.836 22.7715C141.463 20.5303 140.276 17.3926 140.276 13.3584C140.276 9.27148 141.621 6.12061 144.311 3.90576C147 1.69092 150.916 0.583496 156.057 0.583496C161.568 0.583496 165.536 2.00732 167.962 4.85498C170.414 7.70264 171.64 10.8535 171.64 14.3076V16.918H170.968V14.3867C170.968 11.0381 169.821 8.01904 167.527 5.32959C165.233 2.61377 161.423 1.25586 156.097 1.25586C151.008 1.25586 147.211 2.29736 144.706 4.38037C142.228 6.46338 140.988 9.45605 140.988 13.3584C140.988 17.1816 142.135 20.1743 144.429 22.3364C146.723 24.4722 150.85 26.5947 156.809 28.7041C162.768 30.8135 166.894 33.0942 169.188 35.5464C171.508 37.9722 172.668 41.3076 172.668 45.5527C172.668 49.8242 171.192 53.2783 168.239 55.915C165.286 58.5254 161.291 59.8306 156.255 59.8306C151.192 59.8306 147.145 58.5122 144.113 55.8755C141.081 53.2124 139.564 49.6265 139.564 45.1177ZM180.341 59V1.41406H181.014V59H180.341ZM187.658 2.04688V1.41406H224.638V2.04688H206.484V59H205.812V2.04688H187.658ZM231.125 59V1.41406H259.166V2.04688H231.797V28.8623H255.25V29.4951H231.797V58.3672H259.562V59H231.125ZM280.484 59V1.41406H292.626C299.692 1.41406 305.177 4.05078 309.079 9.32422C312.981 14.5977 314.933 21.3213 314.933 29.4951V30.9189C314.933 39.9629 312.771 46.9106 308.446 51.7622C304.122 56.5874 298.849 59 292.626 59H280.484ZM281.156 58.3672H292.626C298.611 58.3672 303.713 55.9678 307.932 51.1689C312.151 46.3701 314.26 39.6069 314.26 30.8794V29.6533C314.26 21.6113 312.362 15.0063 308.565 9.83838C304.768 4.64404 299.455 2.04688 292.626 2.04688H281.156V58.3672ZM324.702 59V1.41406H352.743V2.04688H325.374V28.8623H348.828V29.4951H325.374V58.3672H353.139V59H324.702ZM354.681 1.41406H355.393L373.31 54.9658C373.441 55.335 373.613 55.8359 373.824 56.4688C374.035 57.1016 374.246 57.7607 374.457 58.4463H374.575C374.786 57.7607 374.984 57.1147 375.168 56.5083C375.379 55.8755 375.577 55.3086 375.762 54.8076L393.639 1.41406H394.311L374.892 59.356H374.101L354.681 1.41406ZM400.323 59V1.41406H428.364V2.04688H400.995V28.8623H424.449V29.4951H400.995V58.3672H428.76V59H400.323ZM436.314 59V1.41406H436.986V58.3672H463.09V59H436.314ZM468.271 30.6025V29.2183C468.271 19.0142 470.09 11.6973 473.729 7.26758C477.394 2.81152 482.232 0.583496 488.244 0.583496C494.282 0.583496 499.121 2.81152 502.759 7.26758C506.398 11.6973 508.217 19.0142 508.217 29.2183V30.6025C508.217 41.2812 506.398 48.8223 502.759 53.2256C499.121 57.6289 494.282 59.8306 488.244 59.8306C482.232 59.8306 477.394 57.6289 473.729 53.2256C470.09 48.8223 468.271 41.2812 468.271 30.6025ZM468.943 31.2354C468.943 41.2812 470.697 48.4531 474.204 52.751C477.71 57.0225 482.377 59.1582 488.205 59.1582C494.137 59.1582 498.844 57.0225 502.324 52.751C505.805 48.4795 507.545 41.2944 507.545 31.1958V28.5854C507.545 18.9878 505.792 12.04 502.285 7.74219C498.804 3.41797 494.124 1.25586 488.244 1.25586C482.391 1.25586 477.71 3.41797 474.204 7.74219C470.697 12.04 468.943 18.9878 468.943 28.5854V31.2354ZM517.947 59V1.41406H531.987C537.34 1.41406 541.321 2.90381 543.932 5.8833C546.542 8.86279 547.847 12.6992 547.847 17.3926C547.847 22.0859 546.542 25.9355 543.932 28.9414C541.321 31.9473 537.34 33.4502 531.987 33.4502H518.619V59H517.947ZM518.619 32.8174H531.552C537.01 32.8174 540.979 31.3672 543.457 28.4668C545.936 25.54 547.175 21.8618 547.175 17.4321C547.175 12.9761 545.936 9.29785 543.457 6.39746C541.005 3.49707 537.063 2.04688 531.631 2.04688H518.619V32.8174ZM555.836 59V1.41406H583.878V2.04688H556.509V28.8623H579.962V29.4951H556.509V58.3672H584.273V59H555.836ZM591.828 59V1.41406H605.789C610.852 1.41406 614.701 2.85107 617.338 5.7251C619.975 8.57275 621.293 12.3169 621.293 16.9575C621.293 21.6245 620.027 25.4082 617.496 28.3086C614.991 31.209 611.089 32.6592 605.789 32.6592H592.5V59H591.828ZM592.5 32.0264H605.789C610.852 32.0264 614.583 30.6421 616.982 27.8735C619.408 25.105 620.621 21.4663 620.621 16.9575C620.621 12.4751 619.355 8.87598 616.824 6.16016C614.319 3.41797 610.641 2.04688 605.789 2.04688H592.5V32.0264ZM622.994 59L608.953 32.1055H609.784L623.824 59H622.994ZM662.742 59.3164L649.137 1.41406H649.849L662.228 54.2144C662.307 54.6626 662.413 55.1636 662.544 55.7173C662.676 56.2446 662.834 56.9302 663.019 57.7739H663.098C663.283 56.9038 663.428 56.2183 663.533 55.7173C663.665 55.1899 663.797 54.689 663.929 54.2144L676.506 1.41406H677.416L689.993 54.1748C690.098 54.6758 690.217 55.1899 690.349 55.7173C690.48 56.2446 690.639 56.9302 690.823 57.7739H690.942C691.126 56.9038 691.271 56.2183 691.377 55.7173C691.509 55.1899 691.641 54.6494 691.772 54.0957L704.033 1.41406H704.745L691.1 59.356H690.546L678.048 7.03027C677.943 6.5293 677.771 5.8042 677.534 4.85498C677.297 3.90576 677.099 2.99609 676.941 2.12598H676.862C676.704 2.99609 676.519 3.90576 676.308 4.85498C676.097 5.8042 675.926 6.5293 675.794 7.03027L663.335 59.3164H662.742ZM714.198 59V1.41406H742.239V2.04688H714.87V28.8623H738.324V29.4951H714.87V58.3672H742.635V59H714.198ZM750.189 59V1.41406H764.506C769.305 1.41406 773.049 2.45557 775.739 4.53857C778.455 6.62158 779.812 10.1548 779.812 15.1382C779.812 19.2515 778.824 22.4946 776.846 24.8677C774.895 27.2407 772.219 28.5591 768.817 28.8228V28.8623C772.456 29.0469 775.449 30.3916 777.795 32.8965C780.168 35.375 781.355 38.9873 781.355 43.7334C781.355 48.4531 780.089 52.1841 777.558 54.9263C775.027 57.6421 771.098 59 765.772 59H750.189ZM750.861 58.3672H765.97C770.927 58.3672 774.618 57.0752 777.044 54.4912C779.47 51.9072 780.683 48.3345 780.683 43.7729C780.683 39.2905 779.47 35.7441 777.044 33.1338C774.645 30.4971 770.953 29.1787 765.97 29.1787H750.861V58.3672ZM750.861 28.5459H765.456C770.439 28.5459 773.959 27.333 776.016 24.9072C778.099 22.4551 779.14 19.1987 779.14 15.1382C779.14 10.3921 777.848 7.03027 775.264 5.05273C772.707 3.04883 769.121 2.04688 764.506 2.04688H750.861V28.5459ZM803.662 59V1.41406H815.804C822.87 1.41406 828.354 4.05078 832.257 9.32422C836.159 14.5977 838.11 21.3213 838.11 29.4951V30.9189C838.11 39.9629 835.948 46.9106 831.624 51.7622C827.3 56.5874 822.026 59 815.804 59H803.662ZM804.334 58.3672H815.804C821.789 58.3672 826.891 55.9678 831.11 51.1689C835.329 46.3701 837.438 39.6069 837.438 30.8794V29.6533C837.438 21.6113 835.54 15.0063 831.743 9.83838C827.946 4.64404 822.633 2.04688 815.804 2.04688H804.334V58.3672ZM847.879 59V1.41406H875.921V2.04688H848.552V28.8623H872.005V29.4951H848.552V58.3672H876.316V59H847.879ZM877.859 1.41406H878.571L896.487 54.9658C896.619 55.335 896.791 55.8359 897.001 56.4688C897.212 57.1016 897.423 57.7607 897.634 58.4463H897.753C897.964 57.7607 898.162 57.1147 898.346 56.5083C898.557 55.8755 898.755 55.3086 898.939 54.8076L916.816 1.41406H917.489L898.069 59.356H897.278L877.859 1.41406ZM1284.99 59V1.41406H1297.14C1304.2 1.41406 1309.69 4.05078 1313.59 9.32422C1317.49 14.5977 1319.44 21.3213 1319.44 29.4951V30.9189C1319.44 39.9629 1317.28 46.9106 1312.96 51.7622C1308.63 56.5874 1303.36 59 1297.14 59H1284.99ZM1285.67 58.3672H1297.14C1303.12 58.3672 1308.22 55.9678 1312.44 51.1689C1316.66 46.3701 1318.77 39.6069 1318.77 30.8794V29.6533C1318.77 21.6113 1316.87 15.0063 1313.08 9.83838C1309.28 4.64404 1303.97 2.04688 1297.14 2.04688H1285.67V58.3672ZM1329.21 59V1.41406H1357.25V2.04688H1329.88V28.8623H1353.34V29.4951H1329.88V58.3672H1357.65V59H1329.21ZM1359.19 1.41406H1359.9L1377.82 54.9658C1377.95 55.335 1378.12 55.8359 1378.33 56.4688C1378.55 57.1016 1378.76 57.7607 1378.97 58.4463H1379.09C1379.3 57.7607 1379.49 57.1147 1379.68 56.5083C1379.89 55.8755 1380.09 55.3086 1380.27 54.8076L1398.15 1.41406H1398.82L1379.4 59.356H1378.61L1359.19 1.41406ZM1404.83 59V1.41406H1432.88V2.04688H1405.51V28.8623H1428.96V29.4951H1405.51V58.3672H1433.27V59H1404.83ZM1440.82 59V1.41406H1441.5V58.3672H1467.6V59H1440.82ZM1472.78 30.6025V29.2183C1472.78 19.0142 1474.6 11.6973 1478.24 7.26758C1481.9 2.81152 1486.74 0.583496 1492.75 0.583496C1498.79 0.583496 1503.63 2.81152 1507.27 7.26758C1510.91 11.6973 1512.73 19.0142 1512.73 29.2183V30.6025C1512.73 41.2812 1510.91 48.8223 1507.27 53.2256C1503.63 57.6289 1498.79 59.8306 1492.75 59.8306C1486.74 59.8306 1481.9 57.6289 1478.24 53.2256C1474.6 48.8223 1472.78 41.2812 1472.78 30.6025ZM1473.45 31.2354C1473.45 41.2812 1475.21 48.4531 1478.71 52.751C1482.22 57.0225 1486.89 59.1582 1492.72 59.1582C1498.65 59.1582 1503.35 57.0225 1506.83 52.751C1510.32 48.4795 1512.06 41.2944 1512.06 31.1958V28.5854C1512.06 18.9878 1510.3 12.04 1506.8 7.74219C1503.31 3.41797 1498.63 1.25586 1492.75 1.25586C1486.9 1.25586 1482.22 3.41797 1478.71 7.74219C1475.21 12.04 1473.45 18.9878 1473.45 28.5854V31.2354ZM1522.46 59V1.41406H1536.5C1541.85 1.41406 1545.83 2.90381 1548.44 5.8833C1551.05 8.86279 1552.36 12.6992 1552.36 17.3926C1552.36 22.0859 1551.05 25.9355 1548.44 28.9414C1545.83 31.9473 1541.85 33.4502 1536.5 33.4502H1523.13V59H1522.46ZM1523.13 32.8174H1536.06C1541.52 32.8174 1545.49 31.3672 1547.97 28.4668C1550.45 25.54 1551.69 21.8618 1551.69 17.4321C1551.69 12.9761 1550.45 9.29785 1547.97 6.39746C1545.52 3.49707 1541.57 2.04688 1536.14 2.04688H1523.13V32.8174ZM1560.35 59V1.41406H1588.39V2.04688H1561.02V28.8623H1584.47V29.4951H1561.02V58.3672H1588.78V59H1560.35ZM1596.34 59V1.41406H1610.3C1615.36 1.41406 1619.21 2.85107 1621.85 5.7251C1624.49 8.57275 1625.8 12.3169 1625.8 16.9575C1625.8 21.6245 1624.54 25.4082 1622.01 28.3086C1619.5 31.209 1615.6 32.6592 1610.3 32.6592H1597.01V59H1596.34ZM1597.01 32.0264H1610.3C1615.36 32.0264 1619.09 30.6421 1621.49 27.8735C1623.92 25.105 1625.13 21.4663 1625.13 16.9575C1625.13 12.4751 1623.87 8.87598 1621.33 6.16016C1618.83 3.41797 1615.15 2.04688 1610.3 2.04688H1597.01V32.0264ZM1627.5 59L1613.46 32.1055H1614.29L1628.33 59H1627.5ZM1660.37 59.3164L1646.77 1.41406H1647.48L1659.86 54.2144C1659.94 54.6626 1660.04 55.1636 1660.17 55.7173C1660.31 56.2446 1660.46 56.9302 1660.65 57.7739H1660.73C1660.91 56.9038 1661.06 56.2183 1661.16 55.7173C1661.29 55.1899 1661.43 54.689 1661.56 54.2144L1674.13 1.41406H1675.04L1687.62 54.1748C1687.73 54.6758 1687.85 55.1899 1687.98 55.7173C1688.11 56.2446 1688.27 56.9302 1688.45 57.7739H1688.57C1688.76 56.9038 1688.9 56.2183 1689.01 55.7173C1689.14 55.1899 1689.27 54.6494 1689.4 54.0957L1701.66 1.41406H1702.37L1688.73 59.356H1688.18L1675.68 7.03027C1675.57 6.5293 1675.4 5.8042 1675.16 4.85498C1674.93 3.90576 1674.73 2.99609 1674.57 2.12598H1674.49C1674.33 2.99609 1674.15 3.90576 1673.94 4.85498C1673.73 5.8042 1673.55 6.5293 1673.42 7.03027L1660.96 59.3164H1660.37ZM1711.83 59V1.41406H1739.87V2.04688H1712.5V28.8623H1735.95V29.4951H1712.5V58.3672H1740.26V59H1711.83ZM1747.82 59V1.41406H1762.14C1766.93 1.41406 1770.68 2.45557 1773.37 4.53857C1776.08 6.62158 1777.44 10.1548 1777.44 15.1382C1777.44 19.2515 1776.45 22.4946 1774.48 24.8677C1772.52 27.2407 1769.85 28.5591 1766.45 28.8228V28.8623C1770.08 29.0469 1773.08 30.3916 1775.42 32.8965C1777.8 35.375 1778.98 38.9873 1778.98 43.7334C1778.98 48.4531 1777.72 52.1841 1775.19 54.9263C1772.66 57.6421 1768.73 59 1763.4 59H1747.82ZM1748.49 58.3672H1763.6C1768.56 58.3672 1772.25 57.0752 1774.67 54.4912C1777.1 51.9072 1778.31 48.3345 1778.31 43.7729C1778.31 39.2905 1777.1 35.7441 1774.67 33.1338C1772.27 30.4971 1768.58 29.1787 1763.6 29.1787H1748.49V58.3672ZM1748.49 28.5459H1763.08C1768.07 28.5459 1771.59 27.333 1773.64 24.9072C1775.73 22.4551 1776.77 19.1987 1776.77 15.1382C1776.77 10.3921 1775.48 7.03027 1772.89 5.05273C1770.34 3.04883 1766.75 2.04688 1762.14 2.04688H1748.49V28.5459ZM1801.45 59V1.41406H1813.59C1820.66 1.41406 1826.14 4.05078 1830.04 9.32422C1833.95 14.5977 1835.9 21.3213 1835.9 29.4951V30.9189C1835.9 39.9629 1833.74 46.9106 1829.41 51.7622C1825.09 56.5874 1819.81 59 1813.59 59H1801.45ZM1802.12 58.3672H1813.59C1819.58 58.3672 1824.68 55.9678 1828.9 51.1689C1833.12 46.3701 1835.23 39.6069 1835.23 30.8794V29.6533C1835.23 21.6113 1833.33 15.0063 1829.53 9.83838C1825.73 4.64404 1820.42 2.04688 1813.59 2.04688H1802.12V58.3672ZM1845.67 59V1.41406H1873.71V2.04688H1846.34V28.8623H1869.79V29.4951H1846.34V58.3672H1874.1V59H1845.67ZM1875.65 1.41406H1876.36L1894.27 54.9658C1894.41 55.335 1894.58 55.8359 1894.79 56.4688C1895 57.1016 1895.21 57.7607 1895.42 58.4463H1895.54C1895.75 57.7607 1895.95 57.1147 1896.13 56.5083C1896.34 55.8755 1896.54 55.3086 1896.73 54.8076L1914.6 1.41406H1915.28L1895.86 59.356H1895.07L1875.65 1.41406Z" fill="white"/>
<path d="M938.807 59.0791L935.287 1.41406H951.542L953.164 34.5576C953.19 34.9531 953.19 35.3882 953.164 35.8628C953.164 36.3374 953.15 36.8647 953.124 37.4448H953.282C953.467 36.8647 953.651 36.3374 953.836 35.8628C954.021 35.3882 954.192 34.9531 954.35 34.5576L967.995 1.41406H982.827L985.318 34.5576C985.318 34.9531 985.318 35.375 985.318 35.8232C985.318 36.2715 985.318 36.8252 985.318 37.4844H985.477C985.688 36.8252 985.859 36.2715 985.991 35.8232C986.149 35.3486 986.307 34.9268 986.465 34.5576L999.28 1.41406H1014.63L990.737 59.0791H974.086L971.436 26.252C971.41 25.9092 971.383 25.4873 971.357 24.9863C971.331 24.4854 971.344 23.9448 971.396 23.3647H971.199C971.014 23.9448 970.83 24.4854 970.645 24.9863C970.46 25.4609 970.302 25.8828 970.17 26.252L955.893 59.0791H938.807ZM1007.23 59L1017.39 1.41406H1057.14L1054.81 14.7427H1031.28L1029.62 24.1558H1049.79L1047.73 35.7441H1027.56L1025.7 46.1855H1049.9L1047.61 59H1007.23ZM1051.37 59L1061.53 1.41406H1087.52C1093.58 1.41406 1097.75 2.71924 1100.02 5.32959C1102.28 7.93994 1103.01 11.5127 1102.19 16.0479C1101.64 19.3174 1100.48 22.0332 1098.71 24.1953C1096.94 26.3311 1094.81 27.8208 1092.3 28.6646V28.8228C1095.02 29.5083 1097.13 30.9849 1098.63 33.2524C1100.13 35.4937 1100.52 38.6841 1099.78 42.8237C1098.88 47.8862 1096.52 51.8545 1092.7 54.7285C1088.88 57.5762 1084.02 59 1078.14 59H1051.37ZM1069.76 48.084H1075.49C1077.58 48.084 1079.24 47.4644 1080.48 46.2251C1081.72 44.9595 1082.52 43.272 1082.89 41.1626C1083.26 39.0796 1083.05 37.4053 1082.26 36.1396C1081.47 34.8477 1080.03 34.2017 1077.95 34.2017H1072.21L1069.76 48.084ZM1073.67 25.8169H1078.86C1080.81 25.8169 1082.32 25.2368 1083.4 24.0767C1084.51 22.9165 1085.25 21.3081 1085.62 19.2515C1085.99 17.1685 1085.82 15.5864 1085.1 14.5054C1084.42 13.3979 1083.1 12.8442 1081.15 12.8442H1075.97L1073.67 25.8169ZM1102.31 43.5752L1102.9 40.2925H1118.29L1117.97 42.0723C1117.55 44.3662 1117.84 46.0801 1118.84 47.2139C1119.84 48.3213 1121.41 48.875 1123.55 48.875C1125.53 48.875 1127.13 48.4136 1128.37 47.4907C1129.64 46.5679 1130.42 45.2363 1130.71 43.4961C1131 42.0986 1130.58 40.8857 1129.44 39.8574C1128.31 38.8291 1125.82 37.6558 1121.97 36.3374C1116.19 34.3599 1112.12 31.8945 1109.75 28.9414C1107.37 25.9619 1106.61 22.2705 1107.45 17.8672C1108.43 12.3301 1111.1 8.07178 1115.48 5.09229C1119.86 2.11279 1125.21 0.623047 1131.54 0.623047C1137.84 0.623047 1142.7 1.98096 1146.13 4.69678C1149.59 7.38623 1150.88 11.2227 1150.01 16.2061L1149.53 18.8955H1134.42L1134.66 17.6299C1134.98 15.8369 1134.73 14.4395 1133.91 13.4375C1133.09 12.4355 1131.75 11.9346 1129.88 11.9346C1128 11.9346 1126.53 12.3564 1125.45 13.2002C1124.39 14.0176 1123.73 15.125 1123.47 16.5225C1123.23 17.7354 1123.72 18.8032 1124.93 19.7261C1126.15 20.6489 1128.89 21.7695 1133.16 23.0879C1138.56 24.7754 1142.4 27.0825 1144.67 30.0093C1146.96 32.9097 1147.67 36.8516 1146.8 41.835C1145.78 47.6094 1142.98 52.0522 1138.42 55.1636C1133.88 58.2749 1128.35 59.8306 1121.81 59.8306C1115.35 59.8306 1110.25 58.4595 1106.5 55.7173C1102.78 52.9751 1101.39 48.9277 1102.31 43.5752ZM1148.54 59L1158.71 1.41406H1175.91L1165.75 59H1148.54ZM1177.02 14.7427L1179.35 1.41406H1226.06L1223.69 14.7427H1208.98L1201.19 59H1183.98L1191.77 14.7427H1177.02ZM1219.46 59L1229.62 1.41406H1269.37L1267.04 14.7427H1243.51L1241.84 24.1558H1262.02L1259.96 35.7441H1239.79L1237.93 46.1855H1262.13L1259.84 59H1219.46Z" fill="#D21818"/>
</svg>
