<svg width="1914" height="61" viewBox="0 0 1914 61" fill="none" xmlns="http://www.w3.org/2000/svg">
<path d="M13.6546 59.3164L0.0491333 1.41406H0.761047L13.1404 54.2144C13.2195 54.6626 13.325 55.1636 13.4568 55.7173C13.5887 56.2446 13.7469 56.9302 13.9315 57.7739H14.0106C14.1951 56.9038 14.3401 56.2183 14.4456 55.7173C14.5775 55.1899 14.7093 54.689 14.8411 54.2144L27.4183 1.41406H28.3279L40.9051 54.1748C41.0106 54.6758 41.1292 55.1899 41.261 55.7173C41.3929 56.2446 41.5511 56.9302 41.7357 57.7739H41.8543C42.0389 56.9038 42.1839 56.2183 42.2894 55.7173C42.4212 55.1899 42.553 54.6494 42.6849 54.0957L54.9456 1.41406H55.6575L42.0125 59.356H41.4588L28.9608 7.03027C28.8553 6.5293 28.6839 5.8042 28.4466 4.85498C28.2093 3.90576 28.0115 2.99609 27.8533 2.12598H27.7742C27.616 2.99609 27.4315 3.90576 27.2205 4.85498C27.0096 5.8042 26.8382 6.5293 26.7064 7.03027L14.2479 59.3164H13.6546ZM65.1102 59V1.41406H93.1517V2.04688H65.7825V28.8623H89.2361V29.4951H65.7825V58.3672H93.5472V59H65.1102ZM101.101 59V1.41406H115.419C120.218 1.41406 123.962 2.45557 126.651 4.53857C129.367 6.62158 130.725 10.1548 130.725 15.1382C130.725 19.2515 129.736 22.4946 127.759 24.8677C125.807 27.2407 123.131 28.5591 119.73 28.8228V28.8623C123.368 29.0469 126.361 30.3916 128.708 32.8965C131.081 35.375 132.267 38.9873 132.267 43.7334C132.267 48.4531 131.002 52.1841 128.471 54.9263C125.939 57.6421 122.011 59 116.684 59H101.101ZM101.774 58.3672H116.882C121.839 58.3672 125.531 57.0752 127.956 54.4912C130.382 51.9072 131.595 48.3345 131.595 43.7729C131.595 39.2905 130.382 35.7441 127.956 33.1338C125.557 30.4971 121.866 29.1787 116.882 29.1787H101.774V58.3672ZM101.774 28.5459H116.368C121.351 28.5459 124.871 27.333 126.928 24.9072C129.011 22.4551 130.053 19.1987 130.053 15.1382C130.053 10.3921 128.761 7.03027 126.177 5.05273C123.619 3.04883 120.033 2.04688 115.419 2.04688H101.774V28.5459ZM136.895 45.1177V42.1909H137.567V44.6826C137.567 49.2705 139.004 52.8301 141.878 55.3613C144.779 57.8926 148.707 59.1582 153.664 59.1582C158.49 59.1582 162.3 57.9058 165.095 55.4009C167.916 52.8696 169.326 49.6001 169.326 45.5923C169.326 41.5317 168.232 38.3413 166.044 36.021C163.855 33.6743 159.768 31.4331 153.783 29.2974C147.771 27.188 143.566 25.0127 141.166 22.7715C138.793 20.5303 137.607 17.3926 137.607 13.3584C137.607 9.27148 138.951 6.12061 141.641 3.90576C144.33 1.69092 148.246 0.583496 153.388 0.583496C158.898 0.583496 162.867 2.00732 165.292 4.85498C167.744 7.70264 168.971 10.8535 168.971 14.3076V16.918H168.298V14.3867C168.298 11.0381 167.151 8.01904 164.857 5.32959C162.563 2.61377 158.753 1.25586 153.427 1.25586C148.338 1.25586 144.541 2.29736 142.036 4.38037C139.558 6.46338 138.319 9.45605 138.319 13.3584C138.319 17.1816 139.466 20.1743 141.76 22.3364C144.054 24.4722 148.18 26.5947 154.139 28.7041C160.098 30.8135 164.224 33.0942 166.518 35.5464C168.839 37.9722 169.999 41.3076 169.999 45.5527C169.999 49.8242 168.522 53.2783 165.569 55.915C162.616 58.5254 158.621 59.8306 153.585 59.8306C148.523 59.8306 144.475 58.5122 141.443 55.8755C138.411 53.2124 136.895 49.6265 136.895 45.1177ZM177.672 59V1.41406H178.344V59H177.672ZM184.989 2.04688V1.41406H221.969V2.04688H203.815V59H203.142V2.04688H184.989ZM228.455 59V1.41406H256.496V2.04688H229.127V28.8623H252.581V29.4951H229.127V58.3672H256.892V59H228.455ZM355.225 31.479C355.225 52.868 341.939 59 326.755 59H272.297V4.031H326.755C341.939 4.031 355.225 10.09 355.225 31.479ZM297.482 41.626H320.112C325.66 41.626 330.697 38.998 330.697 31.479C330.697 23.96 325.66 21.405 320.112 21.405H297.482V41.626ZM420.73 44.035V59H345.759V4.031H420.73V18.996H370.944V24.544H415.985V38.487H370.944V44.035H420.73ZM408.387 4.031H437.733L453.209 39.582L468.685 4.031H498.032L469.488 59H436.93L408.387 4.031ZM561.38 44.035V59H486.409V4.031H561.38V18.996H511.594V24.544H556.635V38.487H511.594V44.035H561.38ZM578.569 4.031V39.874H623.245V59H553.384V4.031H578.569ZM696.107 31.479C696.107 57.832 674.791 60.241 653.475 60.241C632.159 60.241 610.843 57.832 610.843 31.479C610.843 5.199 632.159 2.79 653.475 2.79C674.791 2.79 696.107 5.199 696.107 31.479ZM653.475 42.429C661.213 42.429 670.63 41.699 670.63 31.479C670.63 21.259 661.213 20.529 653.475 20.602C645.737 20.529 636.101 21.259 636.101 31.479C636.101 41.772 645.737 42.429 653.475 42.429ZM711.805 43.305V59H686.62V4.031H742.392C755.824 4.031 768.818 5.418 768.818 23.668C768.818 40.239 758.233 43.305 746.115 43.305H711.805ZM711.805 18.996V28.34H737.866C740.786 28.267 743.268 27.683 743.268 23.668C743.268 19.58 740.713 19.069 737.72 18.996H711.805ZM834.269 44.035V59H759.298V4.031H834.269V18.996H784.483V24.544H829.524V38.487H784.483V44.035H834.269ZM910.369 23.668C910.369 35.932 904.602 40.823 896.718 42.502L910.369 59H881.972L868.978 43.305H851.458V59H826.273V4.031H883.943C897.375 4.031 910.369 5.418 910.369 23.668ZM879.417 28.34C882.337 28.267 884.819 27.756 884.819 23.668C884.819 19.58 882.191 19.069 879.271 18.996H851.458V28.34H879.417ZM945.646 59.3164L932.041 1.41406H932.753L945.132 54.2144C945.211 54.6626 945.317 55.1636 945.448 55.7173C945.58 56.2446 945.738 56.9302 945.923 57.7739H946.002C946.187 56.9038 946.332 56.2183 946.437 55.7173C946.569 55.1899 946.701 54.689 946.833 54.2144L959.41 1.41406H960.32L972.897 54.1748C973.002 54.6758 973.121 55.1899 973.253 55.7173C973.384 56.2446 973.543 56.9302 973.727 57.7739H973.846C974.03 56.9038 974.175 56.2183 974.281 55.7173C974.413 55.1899 974.545 54.6494 974.676 54.0957L986.937 1.41406H987.649L974.004 59.356H973.45L960.952 7.03027C960.847 6.5293 960.675 5.8042 960.438 4.85498C960.201 3.90576 960.003 2.99609 959.845 2.12598H959.766C959.608 2.99609 959.423 3.90576 959.212 4.85498C959.001 5.8042 958.83 6.5293 958.698 7.03027L946.239 59.3164H945.646ZM997.102 59V1.41406H1025.14V2.04688H997.774V28.8623H1021.23V29.4951H997.774V58.3672H1025.54V59H997.102ZM1033.09 59V1.41406H1047.41C1052.21 1.41406 1055.95 2.45557 1058.64 4.53857C1061.36 6.62158 1062.72 10.1548 1062.72 15.1382C1062.72 19.2515 1061.73 22.4946 1059.75 24.8677C1057.8 27.2407 1055.12 28.5591 1051.72 28.8228V28.8623C1055.36 29.0469 1058.35 30.3916 1060.7 32.8965C1063.07 35.375 1064.26 38.9873 1064.26 43.7334C1064.26 48.4531 1062.99 52.1841 1060.46 54.9263C1057.93 57.6421 1054 59 1048.68 59H1033.09ZM1033.77 58.3672H1048.87C1053.83 58.3672 1057.52 57.0752 1059.95 54.4912C1062.37 51.9072 1063.59 48.3345 1063.59 43.7729C1063.59 39.2905 1062.37 35.7441 1059.95 33.1338C1057.55 30.4971 1053.86 29.1787 1048.87 29.1787H1033.77V58.3672ZM1033.77 28.5459H1048.36C1053.34 28.5459 1056.86 27.333 1058.92 24.9072C1061 22.4551 1062.04 19.1987 1062.04 15.1382C1062.04 10.3921 1060.75 7.03027 1058.17 5.05273C1055.61 3.04883 1052.02 2.04688 1047.41 2.04688H1033.77V28.5459ZM1150.08 59V1.41406H1162.23C1169.29 1.41406 1174.78 4.05078 1178.68 9.32422C1182.58 14.5977 1184.53 21.3213 1184.53 29.4951V30.9189C1184.53 39.9629 1182.37 46.9106 1178.05 51.7622C1173.72 56.5874 1168.45 59 1162.23 59H1150.08ZM1150.76 58.3672H1162.23C1168.21 58.3672 1173.31 55.9678 1177.53 51.1689C1181.75 46.3701 1183.86 39.6069 1183.86 30.8794V29.6533C1183.86 21.6113 1181.96 15.0063 1178.17 9.83838C1174.37 4.64404 1169.06 2.04688 1162.23 2.04688H1150.76V58.3672ZM1194.3 59V1.41406H1222.34V2.04688H1194.97V28.8623H1218.43V29.4951H1194.97V58.3672H1222.74V59H1194.3ZM1224.28 1.41406H1224.99L1242.91 54.9658C1243.04 55.335 1243.21 55.8359 1243.42 56.4688C1243.64 57.1016 1243.85 57.7607 1244.06 58.4463H1244.18C1244.39 57.7607 1244.58 57.1147 1244.77 56.5083C1244.98 55.8755 1245.18 55.3086 1245.36 54.8076L1263.24 1.41406H1263.91L1244.49 59.356H1243.7L1224.28 1.41406ZM1294.33 59.3164L1280.72 1.41406H1281.43L1293.81 54.2144C1293.89 54.6626 1294 55.1636 1294.13 55.7173C1294.26 56.2446 1294.42 56.9302 1294.6 57.7739H1294.68C1294.87 56.9038 1295.01 56.2183 1295.12 55.7173C1295.25 55.1899 1295.38 54.689 1295.51 54.2144L1308.09 1.41406H1309L1321.58 54.1748C1321.68 54.6758 1321.8 55.1899 1321.93 55.7173C1322.06 56.2446 1322.22 56.9302 1322.41 57.7739H1322.53C1322.71 56.9038 1322.86 56.2183 1322.96 55.7173C1323.09 55.1899 1323.22 54.6494 1323.36 54.0957L1335.62 1.41406H1336.33L1322.68 59.356H1322.13L1309.63 7.03027C1309.53 6.5293 1309.36 5.8042 1309.12 4.85498C1308.88 3.90576 1308.68 2.99609 1308.52 2.12598H1308.45C1308.29 2.99609 1308.1 3.90576 1307.89 4.85498C1307.68 5.8042 1307.51 6.5293 1307.38 7.03027L1294.92 59.3164H1294.33ZM1345.78 59V1.41406H1373.82V2.04688H1346.45V28.8623H1369.91V29.4951H1346.45V58.3672H1374.22V59H1345.78ZM1381.77 59V1.41406H1396.09C1400.89 1.41406 1404.63 2.45557 1407.32 4.53857C1410.04 6.62158 1411.4 10.1548 1411.4 15.1382C1411.4 19.2515 1410.41 22.4946 1408.43 24.8677C1406.48 27.2407 1403.8 28.5591 1400.4 28.8228V28.8623C1404.04 29.0469 1407.03 30.3916 1409.38 32.8965C1411.75 35.375 1412.94 38.9873 1412.94 43.7334C1412.94 48.4531 1411.67 52.1841 1409.14 54.9263C1406.61 57.6421 1402.68 59 1397.36 59H1381.77ZM1382.45 58.3672H1397.55C1402.51 58.3672 1406.2 57.0752 1408.63 54.4912C1411.05 51.9072 1412.27 48.3345 1412.27 43.7729C1412.27 39.2905 1411.05 35.7441 1408.63 33.1338C1406.23 30.4971 1402.54 29.1787 1397.55 29.1787H1382.45V58.3672ZM1382.45 28.5459H1397.04C1402.02 28.5459 1405.54 27.333 1407.6 24.9072C1409.68 22.4551 1410.72 19.1987 1410.72 15.1382C1410.72 10.3921 1409.43 7.03027 1406.85 5.05273C1404.29 3.04883 1400.7 2.04688 1396.09 2.04688H1382.45V28.5459ZM1570.43 59V1.41406H1582.57C1589.64 1.41406 1595.12 4.05078 1599.03 9.32422C1602.93 14.5977 1604.88 21.3213 1604.88 29.4951V30.9189C1604.88 39.9629 1602.72 46.9106 1598.39 51.7622C1594.07 56.5874 1588.79 59 1582.57 59H1570.43ZM1571.1 58.3672H1582.57C1588.56 58.3672 1593.66 55.9678 1597.88 51.1689C1602.1 46.3701 1604.21 39.6069 1604.21 30.8794V29.6533C1604.21 21.6113 1602.31 15.0063 1598.51 9.83838C1594.71 4.64404 1589.4 2.04688 1582.57 2.04688H1571.1V58.3672ZM1614.65 59V1.41406H1642.69V2.04688H1615.32V28.8623H1638.77V29.4951H1615.32V58.3672H1643.08V59H1614.65ZM1644.63 1.41406H1645.34L1663.26 54.9658C1663.39 55.335 1663.56 55.8359 1663.77 56.4688C1663.98 57.1016 1664.19 57.7607 1664.4 58.4463H1664.52C1664.73 57.7607 1664.93 57.1147 1665.11 56.5083C1665.33 55.8755 1665.52 55.3086 1665.71 54.8076L1683.58 1.41406H1684.26L1664.84 59.356H1664.05L1644.63 1.41406ZM1690.27 59V1.41406H1718.31V2.04688H1690.94V28.8623H1714.39V29.4951H1690.94V58.3672H1718.71V59H1690.27ZM1726.26 59V1.41406H1726.93V58.3672H1753.04V59H1726.26ZM1758.22 30.6025V29.2183C1758.22 19.0142 1760.04 11.6973 1763.68 7.26758C1767.34 2.81152 1772.18 0.583496 1778.19 0.583496C1784.23 0.583496 1789.07 2.81152 1792.71 7.26758C1796.34 11.6973 1798.16 19.0142 1798.16 29.2183V30.6025C1798.16 41.2812 1796.34 48.8223 1792.71 53.2256C1789.07 57.6289 1784.23 59.8306 1778.19 59.8306C1772.18 59.8306 1767.34 57.6289 1763.68 53.2256C1760.04 48.8223 1758.22 41.2812 1758.22 30.6025ZM1758.89 31.2354C1758.89 41.2812 1760.64 48.4531 1764.15 52.751C1767.66 57.0225 1772.32 59.1582 1778.15 59.1582C1784.08 59.1582 1788.79 57.0225 1792.27 52.751C1795.75 48.4795 1797.49 41.2944 1797.49 31.1958V28.5854C1797.49 18.9878 1795.74 12.04 1792.23 7.74219C1788.75 3.41797 1784.07 1.25586 1778.19 1.25586C1772.34 1.25586 1767.66 3.41797 1764.15 7.74219C1760.64 12.04 1758.89 18.9878 1758.89 28.5854V31.2354ZM1807.89 59V1.41406H1821.93C1827.29 1.41406 1831.27 2.90381 1833.88 5.8833C1836.49 8.86279 1837.79 12.6992 1837.79 17.3926C1837.79 22.0859 1836.49 25.9355 1833.88 28.9414C1831.27 31.9473 1827.29 33.4502 1821.93 33.4502H1808.57V59H1807.89ZM1808.57 32.8174H1821.5C1826.96 32.8174 1830.92 31.3672 1833.4 28.4668C1835.88 25.54 1837.12 21.8618 1837.12 17.4321C1837.12 12.9761 1835.88 9.29785 1833.4 6.39746C1830.95 3.49707 1827.01 2.04688 1821.58 2.04688H1808.57V32.8174ZM1845.78 59V1.41406H1873.82V2.04688H1846.45V28.8623H1869.91V29.4951H1846.45V58.3672H1874.22V59H1845.78ZM1881.77 59V1.41406H1895.74C1900.8 1.41406 1904.65 2.85107 1907.28 5.7251C1909.92 8.57275 1911.24 12.3169 1911.24 16.9575C1911.24 21.6245 1909.97 25.4082 1907.44 28.3086C1904.94 31.209 1901.03 32.6592 1895.74 32.6592H1882.45V59H1881.77ZM1882.45 32.0264H1895.74C1900.8 32.0264 1904.53 30.6421 1906.93 27.8735C1909.35 25.105 1910.57 21.4663 1910.57 16.9575C1910.57 12.4751 1909.3 8.87598 1906.77 6.16016C1904.26 3.41797 1900.59 2.04688 1895.74 2.04688H1882.45V32.0264ZM1912.94 59L1898.9 32.1055H1899.73L1913.77 59H1912.94Z" fill="white"/>
<path d="M1122.35 59H1081.93L1114 3.51499H1098.05C1096.26 3.51499 1094.32 3.839 1092.21 4.487C1090.16 5.081 1088.14 5.756 1086.14 6.512V2.381L1121.37 2.3L1089.3 57.785H1110.52C1112.3 57.785 1114.22 57.488 1116.27 56.894C1118.32 56.246 1120.35 55.544 1122.35 54.788V59ZM1418.91 44.1289V41.4395H1422.19V44.0103C1422.19 48.2554 1423.41 51.4722 1425.83 53.6606C1428.28 55.8228 1431.66 56.9038 1435.96 56.9038C1440.23 56.9038 1443.52 55.8228 1445.84 53.6606C1448.19 51.4722 1449.36 48.6113 1449.36 45.0781C1449.36 41.624 1448.4 38.9214 1446.48 36.9702C1444.55 34.9927 1440.86 33.002 1435.4 30.998C1430 28.9941 1426.06 26.8848 1423.58 24.6699C1421.1 22.4287 1419.86 19.0537 1419.86 14.5449C1419.86 10.3789 1421.23 7.01709 1423.97 4.45947C1426.74 1.87549 1430.67 0.583496 1435.76 0.583496C1440.85 0.583496 1444.76 1.96777 1447.51 4.73633C1450.25 7.47852 1451.62 11.0776 1451.62 15.5337V17.6299H1448.34V15.5732C1448.34 12.0664 1447.3 9.19238 1445.21 6.95117C1443.16 4.68359 1440 3.5498 1435.76 3.5498C1431.41 3.5498 1428.22 4.51221 1426.19 6.43701C1424.16 8.33545 1423.14 11.0117 1423.14 14.4658C1423.14 17.7354 1424.13 20.3062 1426.11 22.1782C1428.09 24.0503 1431.78 25.9883 1437.18 27.9922C1442.64 29.9961 1446.58 32.2637 1449.01 34.7949C1451.46 37.3262 1452.69 40.7144 1452.69 44.9595C1452.69 49.4155 1451.17 53.0146 1448.14 55.7568C1445.13 58.4727 1441.06 59.8306 1435.92 59.8306C1430.75 59.8306 1426.62 58.4727 1423.54 55.7568C1420.45 53.041 1418.91 49.165 1418.91 44.1289ZM1461.15 59V1.41406H1464.47V59H1461.15ZM1470.68 4.38037V1.41406H1508.22V4.38037H1491.13V59H1487.85V4.38037H1470.68ZM1514.23 59V1.41406H1543.14V4.38037H1517.55V27.7549H1539.26V30.7212H1517.55V56.0337H1543.54V59H1514.23Z" fill="#D21818"/>
</svg>
