<svg width="820" height="418" viewBox="0 0 820 418" fill="none" xmlns="http://www.w3.org/2000/svg">
<path d="M0 417.158V413.193L241.289 7.64648H6.51367V4.81445H244.688V7.36328L2.54883 414.326H251.484V417.158H0ZM265.078 417.158L406.113 0H409.229L551.113 417.158H547.998L415.459 27.4707C413.193 20.6738 411.683 16.3314 410.928 14.4434C410.173 12.3665 409.134 8.7793 407.812 3.68164H407.246C405.924 8.7793 404.792 12.7441 403.848 15.5762C402.904 18.4082 401.582 22.4674 399.883 27.7539L267.91 417.158H265.078ZM310.107 289.717L311.523 286.885H504.951L506.084 289.717H310.107ZM593.594 417.158V4.81445H691.582C727.266 4.81445 754.359 15.1042 772.861 35.6836C791.553 56.0742 800.898 82.6953 800.898 115.547C800.898 148.776 792.025 175.775 774.277 196.543C756.53 217.311 728.965 227.695 691.582 227.695H596.426V417.158H593.594ZM596.426 224.863H691.582C727.643 224.863 754.359 214.857 771.729 194.844C789.287 174.642 798.066 148.21 798.066 115.547C798.066 83.0729 788.91 57.0182 770.596 37.3828C752.282 17.5586 725.944 7.64648 691.582 7.64648H596.426V224.863ZM815.625 417.158L715.088 224.297H718.486L819.023 417.158H815.625Z" fill="white"/>
</svg>
