<svg width="838" height="322" viewBox="0 0 838 322" fill="none" xmlns="http://www.w3.org/2000/svg">
<path d="M0.797551 321.138L0.782803 270.381L128.388 76.4892L7.31829 76.5772L7.29639 1.21104L249.215 1.03507L249.231 54.6483L122.944 248.759L257.417 248.661L257.438 320.951L0.797551 321.138ZM260.734 320.949L361.496 0.953396L466.964 0.876679L564.835 320.727L471.232 320.796L417.342 124.179C415.729 118.175 414.336 112.976 413.163 108.582C412.136 104.042 411.329 100.6 410.743 98.2565L410.303 98.2568C409.571 100.601 408.62 103.971 407.45 108.366C406.425 112.762 405.182 117.963 403.719 123.97L353.459 320.881L260.734 320.949ZM324 267.07L335.627 205.977L487.019 205.867L500.001 266.942L324 267.07ZM576.481 320.719L576.388 0.797086L723.385 0.690162C754.44 0.667573 779.418 10.2441 798.32 29.4198C817.222 48.5955 826.678 73.6375 826.687 104.546C826.696 136.626 816.523 162.927 796.168 183.45C775.812 203.972 751.133 214.244 722.129 214.265L672.471 214.301L672.501 320.649L576.481 320.719ZM672.453 153.877L698.381 153.858C709.953 153.849 718.008 149.888 722.547 141.975C727.232 133.915 729.573 123.586 729.569 110.988C729.566 98.2443 727.219 87.7724 722.529 79.5726C717.986 71.3728 709.928 67.2039 698.356 67.0658L672.428 67.0847L672.453 153.877ZM736.002 320.603L684.547 184.849L766.937 158.202L839.933 320.527L736.002 320.603Z" fill="white"/>
</svg>
