<svg width="681" height="148" viewBox="0 0 681 148" fill="none" xmlns="http://www.w3.org/2000/svg">
<path d="M34.3961 145.564L0.358783 3.20079L41.2767 3.17754L59.7639 84.0264C59.9595 84.8727 60.1552 85.8817 60.3509 87.0534C60.5467 88.2252 60.7424 89.4946 60.9383 90.8617L61.3289 90.8615C61.5237 89.4942 61.7185 88.2245 61.9134 87.0526C62.1734 85.8805 62.4009 84.8713 62.5959 84.0248L81.6088 3.15463L118.035 3.13393L138.572 83.9817C138.768 84.8279 138.964 85.8043 139.159 86.911C139.355 88.0177 139.551 89.3522 139.747 90.9146L140.235 90.9143C140.43 89.3517 140.592 88.017 140.722 86.9101C140.917 85.8032 141.112 84.8266 141.307 83.9801L158.562 3.11091L196.745 3.08921L162.814 145.491L121.505 145.515L100.675 65.4485C100.544 64.7975 100.349 63.8862 100.088 62.7145C99.8271 61.4776 99.5987 60.1757 99.4029 58.8086L99.0123 58.8088C98.8175 60.1761 98.5901 61.4458 98.3301 62.6178C98.0701 63.7898 97.8752 64.7339 97.7452 65.4502L76.9742 145.54L34.3961 145.564ZM197.066 77.9914L197.063 70.3742C197.054 46.1555 202.777 28.5741 214.231 17.6301C225.751 6.62091 240.43 1.11127 258.268 1.10114C276.237 1.09093 290.952 6.58387 302.415 17.58C313.877 28.511 319.613 46.0858 319.622 70.3046L319.625 77.9218C319.634 102.141 313.911 119.754 302.457 130.764C291.003 141.708 276.291 147.185 258.323 147.195C240.484 147.205 225.801 141.745 214.273 130.814C202.811 119.818 197.075 102.21 197.066 77.9914ZM241.603 91.638C241.606 101.599 243.041 108.662 245.907 112.827C248.839 116.992 252.974 119.073 258.312 119.07C263.716 119.067 267.849 116.981 270.712 112.813C273.64 108.645 275.102 101.58 275.099 91.6189L275.086 56.951C275.082 47.1202 273.615 40.1549 270.684 36.055C267.817 31.9551 263.683 29.9067 258.279 29.9097C252.94 29.9128 248.807 31.9659 245.879 36.0691C243.016 40.1723 241.586 47.1393 241.59 56.97L241.603 91.638ZM330.978 145.2L330.925 3.01298L396.257 2.97587C410.059 2.96802 421.161 7.22604 429.563 15.7499C437.964 24.2738 442.168 35.4042 442.173 49.1412C442.178 63.399 437.658 75.0878 428.612 84.2075C419.566 93.3272 408.597 97.8908 395.707 97.8981L373.636 97.9106L373.654 145.176L330.978 145.2ZM373.626 71.0551L385.15 71.0486C390.293 71.0457 393.873 69.2858 395.89 65.7691C397.972 62.1871 399.012 57.5967 399.01 51.9977C399.008 46.3337 397.964 41.6793 395.88 38.0347C393.86 34.39 390.279 32.5366 385.135 32.4744L373.612 32.4809L373.626 71.0551ZM401.876 145.16L379.002 84.8216L415.619 72.9844L448.068 145.134L401.876 145.16ZM453.244 145.131L453.191 2.94352L495.867 2.91928L495.884 49.8919L527.605 2.90124L570.866 2.87667L495.903 101.65L495.919 145.107L453.244 145.131ZM527.462 145.089L492.184 78.4097L517.562 46.2663L574.923 145.062L527.462 145.089ZM572.077 107.271L572.074 98.6768L610.355 98.655L610.357 103.245C610.359 108.844 611.76 113.01 614.561 115.742C617.426 118.41 621.398 119.743 626.476 119.74C631.164 119.737 634.809 118.596 637.413 116.315C640.016 113.97 641.317 110.779 641.315 106.743C641.314 103.227 639.816 100.331 636.82 98.0541C633.824 95.7771 627.15 92.9489 616.797 89.5693C601.886 84.6299 590.947 78.6791 583.978 71.7169C577.009 64.6896 573.523 55.3166 573.518 43.5978C573.513 30.1864 578.23 19.7345 587.667 12.2421C597.169 4.74974 609.668 0.999153 625.163 0.99035C640.657 0.981547 653.224 4.26217 662.862 10.8322C672.565 17.4022 677.418 26.807 677.423 39.0466L677.425 45.9802L639.73 46.0016L639.729 42.779C639.727 38.4821 638.554 35.1624 636.21 32.82C633.865 30.4125 630.512 29.21 626.15 29.2125C621.462 29.2151 618.077 30.2262 615.995 32.2456C613.912 34.265 612.871 36.9023 612.873 40.1575C612.874 43.2174 614.47 45.7881 617.661 47.8696C620.851 49.886 628.177 52.5837 639.636 55.9626C653.44 60.0563 663.696 65.7146 670.404 72.9373C677.178 80.0949 680.567 89.9237 680.571 102.424C680.577 116.486 675.633 127.427 665.74 135.245C655.847 143.063 642.99 146.976 627.17 146.985C611.285 146.994 598.132 143.649 587.713 136.949C577.294 130.249 572.082 120.356 572.077 107.271Z" fill="white"/>
</svg>
